%TF.GenerationSoftware,KiCad,Pcbnew,5.1.7-a382d34a8~87~ubuntu18.04.1*%
%TF.CreationDate,2020-10-29T22:49:13+05:30*%
%TF.ProjectId,leddriver,6c656464-7269-4766-9572-2e6b69636164,rev?*%
%TF.SameCoordinates,Original*%
%TF.FileFunction,Copper,L2,Bot*%
%TF.FilePolarity,Positive*%
%FSLAX46Y46*%
G04 Gerber Fmt 4.6, Leading zero omitted, Abs format (unit mm)*
G04 Created by KiCad (PCBNEW 5.1.7-a382d34a8~87~ubuntu18.04.1) date 2020-10-29 22:49:13*
%MOMM*%
%LPD*%
G01*
G04 APERTURE LIST*
%TA.AperFunction,Profile*%
%ADD10C,0.050000*%
%TD*%
%TA.AperFunction,ComponentPad*%
%ADD11O,2.000000X2.000000*%
%TD*%
%TA.AperFunction,ComponentPad*%
%ADD12R,2.000000X2.000000*%
%TD*%
%TA.AperFunction,ComponentPad*%
%ADD13O,2.500000X2.500000*%
%TD*%
%TA.AperFunction,ComponentPad*%
%ADD14C,2.500000*%
%TD*%
%TA.AperFunction,ComponentPad*%
%ADD15C,3.000000*%
%TD*%
%TA.AperFunction,ComponentPad*%
%ADD16R,3.000000X3.000000*%
%TD*%
%TA.AperFunction,ComponentPad*%
%ADD17R,2.500000X2.500000*%
%TD*%
%TA.AperFunction,ComponentPad*%
%ADD18O,3.200000X3.200000*%
%TD*%
%TA.AperFunction,ComponentPad*%
%ADD19R,3.200000X3.200000*%
%TD*%
%TA.AperFunction,Conductor*%
%ADD20C,1.000000*%
%TD*%
%TA.AperFunction,Conductor*%
%ADD21C,0.700000*%
%TD*%
%TA.AperFunction,Conductor*%
%ADD22C,0.254000*%
%TD*%
%TA.AperFunction,Conductor*%
%ADD23C,0.100000*%
%TD*%
G04 APERTURE END LIST*
D10*
X203911200Y-61722000D02*
X271830800Y-61722000D01*
X203911200Y-19507200D02*
X203911200Y-61722000D01*
X271830800Y-19507200D02*
X271830800Y-61722000D01*
X203911200Y-19507200D02*
X271830800Y-19507200D01*
D11*
%TO.P,U1,8*%
%TO.N,VCC*%
X218643200Y-36017200D03*
%TO.P,U1,4*%
X226263200Y-28397200D03*
%TO.P,U1,7*%
%TO.N,N/C*%
X218643200Y-33477200D03*
%TO.P,U1,3*%
%TO.N,OUT1*%
X226263200Y-30937200D03*
%TO.P,U1,6*%
%TO.N,/THR1*%
X218643200Y-30937200D03*
%TO.P,U1,2*%
X226263200Y-33477200D03*
%TO.P,U1,5*%
%TO.N,/CTRL1*%
X218643200Y-28397200D03*
D12*
%TO.P,U1,1*%
%TO.N,GND*%
X226263200Y-36017200D03*
%TD*%
D13*
%TO.P,R6,2*%
%TO.N,OUT*%
X240487200Y-44653200D03*
D14*
%TO.P,R6,1*%
%TO.N,Net-(Q1-Pad2)*%
X235407200Y-44653200D03*
%TD*%
%TO.P,C1,2*%
%TO.N,GND*%
X234436800Y-40081200D03*
%TO.P,C1,1*%
%TO.N,Net-(C1-Pad1)*%
X230936800Y-40081200D03*
%TD*%
D15*
%TO.P,BZ1,2*%
%TO.N,Net-(BZ1-Pad2)*%
X245039200Y-54305200D03*
D16*
%TO.P,BZ1,1*%
%TO.N,VCC*%
X237439200Y-54305200D03*
%TD*%
%TO.P,Q1,2*%
%TO.N,Net-(Q1-Pad2)*%
%TA.AperFunction,ComponentPad*%
G36*
G01*
X226334000Y-53819000D02*
X226334000Y-52569000D01*
G75*
G02*
X226959000Y-51944000I625000J0D01*
G01*
X228209000Y-51944000D01*
G75*
G02*
X228834000Y-52569000I0J-625000D01*
G01*
X228834000Y-53819000D01*
G75*
G02*
X228209000Y-54444000I-625000J0D01*
G01*
X226959000Y-54444000D01*
G75*
G02*
X226334000Y-53819000I0J625000D01*
G01*
G37*
%TD.AperFunction*%
%TO.P,Q1,3*%
%TO.N,Net-(BZ1-Pad2)*%
%TA.AperFunction,ComponentPad*%
G36*
G01*
X230144000Y-58429000D02*
X230144000Y-57179000D01*
G75*
G02*
X230769000Y-56554000I625000J0D01*
G01*
X232019000Y-56554000D01*
G75*
G02*
X232644000Y-57179000I0J-625000D01*
G01*
X232644000Y-58429000D01*
G75*
G02*
X232019000Y-59054000I-625000J0D01*
G01*
X230769000Y-59054000D01*
G75*
G02*
X230144000Y-58429000I0J625000D01*
G01*
G37*
%TD.AperFunction*%
D17*
%TO.P,Q1,1*%
%TO.N,GND*%
X226314000Y-57804000D03*
%TD*%
D14*
%TO.P,C4,2*%
%TO.N,GND*%
X250489600Y-44500800D03*
%TO.P,C4,1*%
%TO.N,/CTRL2*%
X246989600Y-44500800D03*
%TD*%
D11*
%TO.P,U2,8*%
%TO.N,VCC*%
X248107200Y-27889200D03*
%TO.P,U2,4*%
%TO.N,OUT1*%
X240487200Y-35509200D03*
%TO.P,U2,7*%
%TO.N,/DIS2*%
X248107200Y-30429200D03*
%TO.P,U2,3*%
%TO.N,OUT*%
X240487200Y-32969200D03*
%TO.P,U2,6*%
%TO.N,/THR2*%
X248107200Y-32969200D03*
%TO.P,U2,2*%
X240487200Y-30429200D03*
%TO.P,U2,5*%
%TO.N,/CTRL2*%
X248107200Y-35509200D03*
D12*
%TO.P,U2,1*%
%TO.N,GND*%
X240487200Y-27889200D03*
%TD*%
D17*
%TO.P,J1,1*%
%TO.N,OUT*%
X233883200Y-29413200D03*
%TD*%
D11*
%TO.P,J2,2*%
%TO.N,GND*%
X263601200Y-31191200D03*
D12*
%TO.P,J2,1*%
%TO.N,VCC*%
X263601200Y-28651200D03*
%TD*%
D14*
%TO.P,C3,2*%
%TO.N,GND*%
X259339200Y-39827200D03*
%TO.P,C3,1*%
%TO.N,/THR2*%
X262839200Y-39827200D03*
%TD*%
D18*
%TO.P,D1,2*%
%TO.N,Net-(BZ1-Pad2)*%
X263093200Y-58115200D03*
D19*
%TO.P,D1,1*%
%TO.N,VCC*%
X263093200Y-50495200D03*
%TD*%
D13*
%TO.P,R5,2*%
%TO.N,/THR2*%
X254457200Y-41859200D03*
D14*
%TO.P,R5,1*%
%TO.N,/DIS2*%
X254457200Y-36779200D03*
%TD*%
D13*
%TO.P,R4,2*%
%TO.N,/DIS2*%
X254711200Y-32969200D03*
D14*
%TO.P,R4,1*%
%TO.N,VCC*%
X254711200Y-27889200D03*
%TD*%
D13*
%TO.P,R3,2*%
%TO.N,GND*%
X208737200Y-41859200D03*
D14*
%TO.P,R3,1*%
%TO.N,/THR1*%
X213817200Y-41859200D03*
%TD*%
D13*
%TO.P,R2,2*%
%TO.N,/THR1*%
X225247200Y-23063200D03*
D14*
%TO.P,R2,1*%
%TO.N,VCC*%
X230327200Y-23063200D03*
%TD*%
D13*
%TO.P,R1,2*%
%TO.N,Net-(C1-Pad1)*%
X228295200Y-46177200D03*
D14*
%TO.P,R1,1*%
%TO.N,OUT1*%
X223215200Y-46177200D03*
%TD*%
%TO.P,C2,2*%
%TO.N,GND*%
X210769200Y-31699200D03*
%TO.P,C2,1*%
%TO.N,/CTRL1*%
X210769200Y-28199200D03*
%TD*%
D15*
%TO.P,SW1,1*%
%TO.N,Net-(C1-Pad1)*%
X216761200Y-51837200D03*
%TO.P,SW1,2*%
%TO.N,/THR1*%
X216761200Y-56337200D03*
%TO.P,SW1,1*%
%TO.N,Net-(C1-Pad1)*%
X210261200Y-51837200D03*
%TO.P,SW1,2*%
%TO.N,/THR1*%
X210261200Y-56337200D03*
%TD*%
D20*
%TO.N,Net-(C1-Pad1)*%
X224135199Y-50337201D02*
X228295200Y-46177200D01*
X218261199Y-50337201D02*
X224135199Y-50337201D01*
X216761200Y-51837200D02*
X218261199Y-50337201D01*
X210261200Y-51837200D02*
X216761200Y-51837200D01*
X229819200Y-44653200D02*
X228295200Y-46177200D01*
X230936800Y-43535600D02*
X229819200Y-44653200D01*
X230936800Y-40081200D02*
X230936800Y-43535600D01*
%TO.N,VCC*%
X230327200Y-23063200D02*
X246329200Y-23063200D01*
X248107200Y-24841200D02*
X248107200Y-27889200D01*
X246329200Y-23063200D02*
X248107200Y-24841200D01*
X246329200Y-23063200D02*
X261924800Y-23063200D01*
X263601200Y-24739600D02*
X263601200Y-28651200D01*
X261924800Y-23063200D02*
X263601200Y-24739600D01*
X248107200Y-27889200D02*
X254711200Y-27889200D01*
X263601200Y-28651200D02*
X265328400Y-28651200D01*
X265328400Y-28651200D02*
X268173200Y-31496000D01*
X268173200Y-45415200D02*
X263093200Y-50495200D01*
X268173200Y-31496000D02*
X268173200Y-45415200D01*
X237439200Y-54305200D02*
X238455200Y-54305200D01*
X242265200Y-50495200D02*
X263093200Y-50495200D01*
X238455200Y-54305200D02*
X242265200Y-50495200D01*
X230327200Y-24333200D02*
X230327200Y-23063200D01*
X226263200Y-28397200D02*
X230327200Y-24333200D01*
X225171643Y-28397200D02*
X226263200Y-28397200D01*
X221742000Y-31826843D02*
X225171643Y-28397200D01*
X221742000Y-34078402D02*
X221742000Y-31826843D01*
X219803202Y-36017200D02*
X221742000Y-34078402D01*
X218643200Y-36017200D02*
X219803202Y-36017200D01*
%TO.N,OUT*%
X241647202Y-32969200D02*
X240487200Y-32969200D01*
X242987201Y-34309199D02*
X241647202Y-32969200D01*
X242987201Y-42153199D02*
X242987201Y-34309199D01*
X240487200Y-44653200D02*
X242987201Y-42153199D01*
X237439200Y-32969200D02*
X240487200Y-32969200D01*
X233883200Y-29413200D02*
X237439200Y-32969200D01*
%TO.N,OUT1*%
X234779198Y-35509200D02*
X240487200Y-35509200D01*
X226263200Y-30937200D02*
X230207198Y-30937200D01*
X230207198Y-30937200D02*
X234779198Y-35509200D01*
X227677413Y-30937200D02*
X226263200Y-30937200D01*
D21*
X223913199Y-32349199D02*
X225325198Y-30937200D01*
X225325198Y-30937200D02*
X226263200Y-30937200D01*
X223913199Y-34523512D02*
X223913199Y-32349199D01*
X223215200Y-35221511D02*
X223913199Y-34523512D01*
X223215200Y-46177200D02*
X223215200Y-35221511D01*
D20*
%TO.N,Net-(BZ1-Pad2)*%
X241940400Y-57404000D02*
X245039200Y-54305200D01*
X231394000Y-57404000D02*
X241940400Y-57404000D01*
X259283200Y-54305200D02*
X263093200Y-58115200D01*
X245039200Y-54305200D02*
X259283200Y-54305200D01*
%TO.N,/CTRL1*%
X218445200Y-28199200D02*
X218643200Y-28397200D01*
X210769200Y-28199200D02*
X218445200Y-28199200D01*
%TO.N,/THR2*%
X251707199Y-39109199D02*
X254457200Y-41859200D01*
X251707199Y-35409197D02*
X251707199Y-39109199D01*
X249267202Y-32969200D02*
X251707199Y-35409197D01*
X248107200Y-32969200D02*
X249267202Y-32969200D01*
X254457200Y-41859200D02*
X256438400Y-43840400D01*
X262839200Y-41594966D02*
X262839200Y-39827200D01*
X260593766Y-43840400D02*
X262839200Y-41594966D01*
X256438400Y-43840400D02*
X260593766Y-43840400D01*
%TO.N,/CTRL2*%
X246989600Y-36626800D02*
X246989600Y-44500800D01*
X248107200Y-35509200D02*
X246989600Y-36626800D01*
%TO.N,/THR1*%
X219803202Y-30937200D02*
X218643200Y-30937200D01*
X225247200Y-25493202D02*
X219803202Y-30937200D01*
X225247200Y-23063200D02*
X225247200Y-25493202D01*
X217228987Y-30937200D02*
X213817200Y-34348987D01*
X213817200Y-34348987D02*
X213817200Y-41859200D01*
X218643200Y-30937200D02*
X217228987Y-30937200D01*
X210261200Y-56337200D02*
X216761200Y-56337200D01*
X210261200Y-56337200D02*
X207010000Y-53086000D01*
X207010000Y-48666400D02*
X213817200Y-41859200D01*
X207010000Y-53086000D02*
X207010000Y-48666400D01*
%TO.N,/DIS2*%
X252171200Y-30429200D02*
X254711200Y-32969200D01*
X248107200Y-30429200D02*
X252171200Y-30429200D01*
X254711200Y-36525200D02*
X254457200Y-36779200D01*
X254711200Y-32969200D02*
X254711200Y-36525200D01*
%TO.N,Net-(Q1-Pad2)*%
X227584000Y-53594000D02*
X227584000Y-52476400D01*
X227584000Y-52476400D02*
X235407200Y-44653200D01*
%TD*%
D22*
%TO.N,GND*%
X271170801Y-61062000D02*
X204571200Y-61062000D01*
X204571200Y-59054000D01*
X224425928Y-59054000D01*
X224438188Y-59178482D01*
X224474498Y-59298180D01*
X224533463Y-59408494D01*
X224612815Y-59505185D01*
X224709506Y-59584537D01*
X224819820Y-59643502D01*
X224939518Y-59679812D01*
X225064000Y-59692072D01*
X226028250Y-59689000D01*
X226187000Y-59530250D01*
X226187000Y-57931000D01*
X226441000Y-57931000D01*
X226441000Y-59530250D01*
X226599750Y-59689000D01*
X227564000Y-59692072D01*
X227688482Y-59679812D01*
X227808180Y-59643502D01*
X227918494Y-59584537D01*
X228015185Y-59505185D01*
X228094537Y-59408494D01*
X228153502Y-59298180D01*
X228189812Y-59178482D01*
X228202072Y-59054000D01*
X228199000Y-58089750D01*
X228040250Y-57931000D01*
X226441000Y-57931000D01*
X226187000Y-57931000D01*
X224587750Y-57931000D01*
X224429000Y-58089750D01*
X224425928Y-59054000D01*
X204571200Y-59054000D01*
X204571200Y-48666400D01*
X205375129Y-48666400D01*
X205383001Y-48746324D01*
X205383000Y-53006085D01*
X205375129Y-53086000D01*
X205383000Y-53165914D01*
X205383000Y-53165924D01*
X205406542Y-53404947D01*
X205499575Y-53711637D01*
X205650654Y-53994285D01*
X205853971Y-54242029D01*
X205916054Y-54292979D01*
X207645372Y-56022298D01*
X207634200Y-56078463D01*
X207634200Y-56595937D01*
X207735154Y-57103468D01*
X207933183Y-57581551D01*
X208220676Y-58011815D01*
X208586585Y-58377724D01*
X209016849Y-58665217D01*
X209494932Y-58863246D01*
X210002463Y-58964200D01*
X210519937Y-58964200D01*
X211027468Y-58863246D01*
X211505551Y-58665217D01*
X211935815Y-58377724D01*
X212301724Y-58011815D01*
X212333539Y-57964200D01*
X214688861Y-57964200D01*
X214720676Y-58011815D01*
X215086585Y-58377724D01*
X215516849Y-58665217D01*
X215994932Y-58863246D01*
X216502463Y-58964200D01*
X217019937Y-58964200D01*
X217527468Y-58863246D01*
X218005551Y-58665217D01*
X218435815Y-58377724D01*
X218801724Y-58011815D01*
X219089217Y-57581551D01*
X219287246Y-57103468D01*
X219388200Y-56595937D01*
X219388200Y-56554000D01*
X224425928Y-56554000D01*
X224429000Y-57518250D01*
X224587750Y-57677000D01*
X226187000Y-57677000D01*
X226187000Y-56077750D01*
X226441000Y-56077750D01*
X226441000Y-57677000D01*
X228040250Y-57677000D01*
X228199000Y-57518250D01*
X228202072Y-56554000D01*
X228189812Y-56429518D01*
X228153502Y-56309820D01*
X228094537Y-56199506D01*
X228015185Y-56102815D01*
X227918494Y-56023463D01*
X227808180Y-55964498D01*
X227688482Y-55928188D01*
X227564000Y-55915928D01*
X226599750Y-55919000D01*
X226441000Y-56077750D01*
X226187000Y-56077750D01*
X226028250Y-55919000D01*
X225064000Y-55915928D01*
X224939518Y-55928188D01*
X224819820Y-55964498D01*
X224709506Y-56023463D01*
X224612815Y-56102815D01*
X224533463Y-56199506D01*
X224474498Y-56309820D01*
X224438188Y-56429518D01*
X224425928Y-56554000D01*
X219388200Y-56554000D01*
X219388200Y-56078463D01*
X219287246Y-55570932D01*
X219089217Y-55092849D01*
X218801724Y-54662585D01*
X218435815Y-54296676D01*
X218122312Y-54087200D01*
X218435815Y-53877724D01*
X218801724Y-53511815D01*
X219089217Y-53081551D01*
X219287246Y-52603468D01*
X219388200Y-52095937D01*
X219388200Y-51964201D01*
X224055285Y-51964201D01*
X224135199Y-51972072D01*
X224215113Y-51964201D01*
X224215124Y-51964201D01*
X224454147Y-51940659D01*
X224760837Y-51847626D01*
X225043485Y-51696547D01*
X225291228Y-51493230D01*
X225342178Y-51431147D01*
X228219126Y-48554200D01*
X228529314Y-48554200D01*
X228988545Y-48462853D01*
X229421132Y-48283670D01*
X229585899Y-48173576D01*
X226946718Y-50812757D01*
X226616138Y-50845316D01*
X226286452Y-50945325D01*
X225982611Y-51107731D01*
X225716293Y-51326293D01*
X225497731Y-51592611D01*
X225335325Y-51896452D01*
X225235316Y-52226138D01*
X225201547Y-52569000D01*
X225201547Y-53819000D01*
X225235316Y-54161862D01*
X225335325Y-54491548D01*
X225497731Y-54795389D01*
X225716293Y-55061707D01*
X225982611Y-55280269D01*
X226286452Y-55442675D01*
X226616138Y-55542684D01*
X226959000Y-55576453D01*
X228209000Y-55576453D01*
X228551862Y-55542684D01*
X228881548Y-55442675D01*
X229185389Y-55280269D01*
X229451707Y-55061707D01*
X229670269Y-54795389D01*
X229832675Y-54491548D01*
X229932684Y-54161862D01*
X229966453Y-53819000D01*
X229966453Y-52569000D01*
X229950841Y-52410484D01*
X235331125Y-47030200D01*
X235641314Y-47030200D01*
X236100545Y-46938853D01*
X236533132Y-46759670D01*
X236922449Y-46499536D01*
X237253536Y-46168449D01*
X237513670Y-45779132D01*
X237692853Y-45346545D01*
X237784200Y-44887314D01*
X237784200Y-44419086D01*
X237692853Y-43959855D01*
X237513670Y-43527268D01*
X237253536Y-43137951D01*
X236922449Y-42806864D01*
X236533132Y-42546730D01*
X236100545Y-42367547D01*
X235641314Y-42276200D01*
X235173086Y-42276200D01*
X234713855Y-42367547D01*
X234281268Y-42546730D01*
X233891951Y-42806864D01*
X233560864Y-43137951D01*
X233300730Y-43527268D01*
X233121547Y-43959855D01*
X233030200Y-44419086D01*
X233030200Y-44729275D01*
X230291576Y-47467899D01*
X230401670Y-47303132D01*
X230580853Y-46870545D01*
X230672200Y-46411314D01*
X230672200Y-46101125D01*
X231026178Y-45747147D01*
X232030751Y-44742575D01*
X232092829Y-44691629D01*
X232143775Y-44629551D01*
X232143778Y-44629548D01*
X232296146Y-44443886D01*
X232361726Y-44321195D01*
X232447225Y-44161238D01*
X232540258Y-43854548D01*
X232563800Y-43615525D01*
X232563800Y-43615515D01*
X232571671Y-43535601D01*
X232563800Y-43455686D01*
X232563800Y-41815785D01*
X232783136Y-41596449D01*
X232917870Y-41394805D01*
X233302800Y-41394805D01*
X233428714Y-41684777D01*
X233760926Y-41850633D01*
X234119112Y-41948490D01*
X234489506Y-41974589D01*
X234857875Y-41927925D01*
X235210062Y-41810294D01*
X235444886Y-41684777D01*
X235570800Y-41394805D01*
X234436800Y-40260805D01*
X233302800Y-41394805D01*
X232917870Y-41394805D01*
X233043270Y-41207132D01*
X233052622Y-41184555D01*
X233123195Y-41215200D01*
X234257195Y-40081200D01*
X234616405Y-40081200D01*
X235750405Y-41215200D01*
X236040377Y-41089286D01*
X236206233Y-40757074D01*
X236304090Y-40398888D01*
X236330189Y-40028494D01*
X236283525Y-39660125D01*
X236165894Y-39307938D01*
X236040377Y-39073114D01*
X235750405Y-38947200D01*
X234616405Y-40081200D01*
X234257195Y-40081200D01*
X233123195Y-38947200D01*
X233052622Y-38977845D01*
X233043270Y-38955268D01*
X232917871Y-38767595D01*
X233302800Y-38767595D01*
X234436800Y-39901595D01*
X235570800Y-38767595D01*
X235444886Y-38477623D01*
X235112674Y-38311767D01*
X234754488Y-38213910D01*
X234384094Y-38187811D01*
X234015725Y-38234475D01*
X233663538Y-38352106D01*
X233428714Y-38477623D01*
X233302800Y-38767595D01*
X232917871Y-38767595D01*
X232783136Y-38565951D01*
X232452049Y-38234864D01*
X232062732Y-37974730D01*
X231630145Y-37795547D01*
X231170914Y-37704200D01*
X230702686Y-37704200D01*
X230243455Y-37795547D01*
X229810868Y-37974730D01*
X229421551Y-38234864D01*
X229090464Y-38565951D01*
X228830330Y-38955268D01*
X228651147Y-39387855D01*
X228559800Y-39847086D01*
X228559800Y-40315314D01*
X228651147Y-40774545D01*
X228830330Y-41207132D01*
X229090464Y-41596449D01*
X229309801Y-41815786D01*
X229309801Y-42861674D01*
X228371275Y-43800200D01*
X228061086Y-43800200D01*
X227601855Y-43891547D01*
X227169268Y-44070730D01*
X226779951Y-44330864D01*
X226448864Y-44661951D01*
X226188730Y-45051268D01*
X226009547Y-45483855D01*
X225918200Y-45943086D01*
X225918200Y-46253274D01*
X225550495Y-46620980D01*
X225592200Y-46411314D01*
X225592200Y-45943086D01*
X225500853Y-45483855D01*
X225321670Y-45051268D01*
X225061536Y-44661951D01*
X224730449Y-44330864D01*
X224692200Y-44305307D01*
X224692200Y-37295994D01*
X224732663Y-37371694D01*
X224812015Y-37468385D01*
X224908706Y-37547737D01*
X225019020Y-37606702D01*
X225138718Y-37643012D01*
X225263200Y-37655272D01*
X225977450Y-37652200D01*
X226136200Y-37493450D01*
X226136200Y-36144200D01*
X226390200Y-36144200D01*
X226390200Y-37493450D01*
X226548950Y-37652200D01*
X227263200Y-37655272D01*
X227387682Y-37643012D01*
X227507380Y-37606702D01*
X227617694Y-37547737D01*
X227714385Y-37468385D01*
X227793737Y-37371694D01*
X227852702Y-37261380D01*
X227889012Y-37141682D01*
X227901272Y-37017200D01*
X227898200Y-36302950D01*
X227739450Y-36144200D01*
X226390200Y-36144200D01*
X226136200Y-36144200D01*
X226116200Y-36144200D01*
X226116200Y-35890200D01*
X226136200Y-35890200D01*
X226136200Y-35870200D01*
X226390200Y-35870200D01*
X226390200Y-35890200D01*
X227739450Y-35890200D01*
X227898200Y-35731450D01*
X227901272Y-35017200D01*
X227889012Y-34892718D01*
X227881262Y-34867171D01*
X227915349Y-34833084D01*
X228148123Y-34484712D01*
X228308461Y-34097623D01*
X228390200Y-33686691D01*
X228390200Y-33267709D01*
X228308461Y-32856777D01*
X228187271Y-32564200D01*
X229533273Y-32564200D01*
X233572218Y-36603145D01*
X233623169Y-36665229D01*
X233749058Y-36768543D01*
X233870911Y-36868546D01*
X234015344Y-36945747D01*
X234153560Y-37019625D01*
X234460250Y-37112658D01*
X234699273Y-37136200D01*
X234699283Y-37136200D01*
X234779197Y-37144071D01*
X234859112Y-37136200D01*
X239106167Y-37136200D01*
X239131316Y-37161349D01*
X239479688Y-37394123D01*
X239866777Y-37554461D01*
X240277709Y-37636200D01*
X240696691Y-37636200D01*
X241107623Y-37554461D01*
X241360202Y-37449839D01*
X241360201Y-41479273D01*
X240563275Y-42276200D01*
X240253086Y-42276200D01*
X239793855Y-42367547D01*
X239361268Y-42546730D01*
X238971951Y-42806864D01*
X238640864Y-43137951D01*
X238380730Y-43527268D01*
X238201547Y-43959855D01*
X238110200Y-44419086D01*
X238110200Y-44887314D01*
X238201547Y-45346545D01*
X238380730Y-45779132D01*
X238640864Y-46168449D01*
X238971951Y-46499536D01*
X239361268Y-46759670D01*
X239793855Y-46938853D01*
X240253086Y-47030200D01*
X240721314Y-47030200D01*
X241180545Y-46938853D01*
X241613132Y-46759670D01*
X242002449Y-46499536D01*
X242333536Y-46168449D01*
X242593670Y-45779132D01*
X242772853Y-45346545D01*
X242864200Y-44887314D01*
X242864200Y-44577125D01*
X244081153Y-43360173D01*
X244143230Y-43309228D01*
X244194176Y-43247150D01*
X244194179Y-43247147D01*
X244346547Y-43061485D01*
X244497625Y-42778839D01*
X244501069Y-42767486D01*
X244590659Y-42472147D01*
X244614201Y-42233124D01*
X244614201Y-42233114D01*
X244622072Y-42153200D01*
X244614201Y-42073285D01*
X244614201Y-34389124D01*
X244622073Y-34309199D01*
X244590659Y-33990251D01*
X244565024Y-33905743D01*
X244497626Y-33683561D01*
X244346547Y-33400913D01*
X244255104Y-33289489D01*
X244194179Y-33215251D01*
X244194176Y-33215248D01*
X244143230Y-33153170D01*
X244081152Y-33102224D01*
X242854179Y-31875252D01*
X242803231Y-31813171D01*
X242555488Y-31609854D01*
X242335133Y-31492071D01*
X242372123Y-31436712D01*
X242532461Y-31049623D01*
X242614200Y-30638691D01*
X242614200Y-30219709D01*
X242532461Y-29808777D01*
X242372123Y-29421688D01*
X242139349Y-29073316D01*
X242105262Y-29039229D01*
X242113012Y-29013682D01*
X242125272Y-28889200D01*
X242122200Y-28174950D01*
X241963450Y-28016200D01*
X240614200Y-28016200D01*
X240614200Y-28036200D01*
X240360200Y-28036200D01*
X240360200Y-28016200D01*
X239010950Y-28016200D01*
X238852200Y-28174950D01*
X238849128Y-28889200D01*
X238861388Y-29013682D01*
X238869138Y-29039229D01*
X238835051Y-29073316D01*
X238602277Y-29421688D01*
X238441939Y-29808777D01*
X238360200Y-30219709D01*
X238360200Y-30638691D01*
X238441939Y-31049623D01*
X238563129Y-31342200D01*
X238113125Y-31342200D01*
X236265653Y-29494728D01*
X236265653Y-28163200D01*
X236243893Y-27942269D01*
X236179450Y-27729829D01*
X236074800Y-27534043D01*
X235933965Y-27362435D01*
X235762357Y-27221600D01*
X235566571Y-27116950D01*
X235354131Y-27052507D01*
X235133200Y-27030747D01*
X232633200Y-27030747D01*
X232412269Y-27052507D01*
X232199829Y-27116950D01*
X232004043Y-27221600D01*
X231832435Y-27362435D01*
X231691600Y-27534043D01*
X231586950Y-27729829D01*
X231522507Y-27942269D01*
X231500747Y-28163200D01*
X231500747Y-29929824D01*
X231414176Y-29843253D01*
X231363227Y-29781171D01*
X231115484Y-29577854D01*
X230832836Y-29426775D01*
X230526146Y-29333742D01*
X230287123Y-29310200D01*
X230287112Y-29310200D01*
X230207198Y-29302329D01*
X230127284Y-29310200D01*
X228187271Y-29310200D01*
X228308461Y-29017623D01*
X228390200Y-28606691D01*
X228390200Y-28571125D01*
X230072125Y-26889200D01*
X238849128Y-26889200D01*
X238852200Y-27603450D01*
X239010950Y-27762200D01*
X240360200Y-27762200D01*
X240360200Y-26412950D01*
X240614200Y-26412950D01*
X240614200Y-27762200D01*
X241963450Y-27762200D01*
X242122200Y-27603450D01*
X242125272Y-26889200D01*
X242113012Y-26764718D01*
X242076702Y-26645020D01*
X242017737Y-26534706D01*
X241938385Y-26438015D01*
X241841694Y-26358663D01*
X241731380Y-26299698D01*
X241611682Y-26263388D01*
X241487200Y-26251128D01*
X240772950Y-26254200D01*
X240614200Y-26412950D01*
X240360200Y-26412950D01*
X240201450Y-26254200D01*
X239487200Y-26251128D01*
X239362718Y-26263388D01*
X239243020Y-26299698D01*
X239132706Y-26358663D01*
X239036015Y-26438015D01*
X238956663Y-26534706D01*
X238897698Y-26645020D01*
X238861388Y-26764718D01*
X238849128Y-26889200D01*
X230072125Y-26889200D01*
X231421152Y-25540174D01*
X231483229Y-25489229D01*
X231534175Y-25427151D01*
X231534178Y-25427148D01*
X231686546Y-25241486D01*
X231722482Y-25174255D01*
X231837625Y-24958838D01*
X231856992Y-24894993D01*
X232061785Y-24690200D01*
X245655275Y-24690200D01*
X246480200Y-25515126D01*
X246480201Y-26508166D01*
X246455051Y-26533316D01*
X246222277Y-26881688D01*
X246061939Y-27268777D01*
X245980200Y-27679709D01*
X245980200Y-28098691D01*
X246061939Y-28509623D01*
X246222277Y-28896712D01*
X246397665Y-29159200D01*
X246222277Y-29421688D01*
X246061939Y-29808777D01*
X245980200Y-30219709D01*
X245980200Y-30638691D01*
X246061939Y-31049623D01*
X246222277Y-31436712D01*
X246397665Y-31699200D01*
X246222277Y-31961688D01*
X246061939Y-32348777D01*
X245980200Y-32759709D01*
X245980200Y-33178691D01*
X246061939Y-33589623D01*
X246222277Y-33976712D01*
X246397665Y-34239200D01*
X246222277Y-34501688D01*
X246061939Y-34888777D01*
X245980200Y-35299709D01*
X245980200Y-35335275D01*
X245895654Y-35419821D01*
X245833571Y-35470771D01*
X245630254Y-35718515D01*
X245479175Y-36001163D01*
X245386142Y-36307853D01*
X245362600Y-36546876D01*
X245362600Y-36546886D01*
X245354729Y-36626800D01*
X245362600Y-36706715D01*
X245362601Y-42766214D01*
X245143264Y-42985551D01*
X244883130Y-43374868D01*
X244703947Y-43807455D01*
X244612600Y-44266686D01*
X244612600Y-44734914D01*
X244703947Y-45194145D01*
X244883130Y-45626732D01*
X245143264Y-46016049D01*
X245474351Y-46347136D01*
X245863668Y-46607270D01*
X246296255Y-46786453D01*
X246755486Y-46877800D01*
X247223714Y-46877800D01*
X247682945Y-46786453D01*
X248115532Y-46607270D01*
X248504849Y-46347136D01*
X248835936Y-46016049D01*
X248970670Y-45814405D01*
X249355600Y-45814405D01*
X249481514Y-46104377D01*
X249813726Y-46270233D01*
X250171912Y-46368090D01*
X250542306Y-46394189D01*
X250910675Y-46347525D01*
X251262862Y-46229894D01*
X251497686Y-46104377D01*
X251623600Y-45814405D01*
X250489600Y-44680405D01*
X249355600Y-45814405D01*
X248970670Y-45814405D01*
X249096070Y-45626732D01*
X249105422Y-45604155D01*
X249175995Y-45634800D01*
X250309995Y-44500800D01*
X250669205Y-44500800D01*
X251803205Y-45634800D01*
X252093177Y-45508886D01*
X252259033Y-45176674D01*
X252356890Y-44818488D01*
X252382989Y-44448094D01*
X252336325Y-44079725D01*
X252218694Y-43727538D01*
X252093177Y-43492714D01*
X251803205Y-43366800D01*
X250669205Y-44500800D01*
X250309995Y-44500800D01*
X249175995Y-43366800D01*
X249105422Y-43397445D01*
X249096070Y-43374868D01*
X248970671Y-43187195D01*
X249355600Y-43187195D01*
X250489600Y-44321195D01*
X251623600Y-43187195D01*
X251497686Y-42897223D01*
X251165474Y-42731367D01*
X250807288Y-42633510D01*
X250436894Y-42607411D01*
X250068525Y-42654075D01*
X249716338Y-42771706D01*
X249481514Y-42897223D01*
X249355600Y-43187195D01*
X248970671Y-43187195D01*
X248835936Y-42985551D01*
X248616600Y-42766215D01*
X248616600Y-37576545D01*
X248727623Y-37554461D01*
X249114712Y-37394123D01*
X249463084Y-37161349D01*
X249759349Y-36865084D01*
X249992123Y-36516712D01*
X250080199Y-36304078D01*
X250080200Y-39029275D01*
X250072328Y-39109199D01*
X250080200Y-39189124D01*
X250103742Y-39428147D01*
X250196775Y-39734837D01*
X250347853Y-40017484D01*
X250500221Y-40203146D01*
X250500225Y-40203150D01*
X250551171Y-40265228D01*
X250613249Y-40316174D01*
X252080200Y-41783126D01*
X252080200Y-42093314D01*
X252171547Y-42552545D01*
X252350730Y-42985132D01*
X252610864Y-43374449D01*
X252941951Y-43705536D01*
X253331268Y-43965670D01*
X253763855Y-44144853D01*
X254223086Y-44236200D01*
X254533274Y-44236200D01*
X255231425Y-44934351D01*
X255282371Y-44996429D01*
X255344449Y-45047375D01*
X255344452Y-45047378D01*
X255456165Y-45139058D01*
X255530114Y-45199746D01*
X255812762Y-45350825D01*
X256119452Y-45443858D01*
X256358475Y-45467400D01*
X256358483Y-45467400D01*
X256438400Y-45475271D01*
X256518317Y-45467400D01*
X260513852Y-45467400D01*
X260593766Y-45475271D01*
X260673680Y-45467400D01*
X260673691Y-45467400D01*
X260912714Y-45443858D01*
X261219404Y-45350825D01*
X261502052Y-45199746D01*
X261749795Y-44996429D01*
X261800745Y-44934346D01*
X263933152Y-42801940D01*
X263995229Y-42750995D01*
X264046175Y-42688917D01*
X264046178Y-42688914D01*
X264198546Y-42503252D01*
X264349624Y-42220606D01*
X264359615Y-42187670D01*
X264442658Y-41913914D01*
X264466200Y-41674891D01*
X264466200Y-41674881D01*
X264474071Y-41594967D01*
X264470390Y-41557595D01*
X264685536Y-41342449D01*
X264945670Y-40953132D01*
X265124853Y-40520545D01*
X265216200Y-40061314D01*
X265216200Y-39593086D01*
X265124853Y-39133855D01*
X264945670Y-38701268D01*
X264685536Y-38311951D01*
X264354449Y-37980864D01*
X263965132Y-37720730D01*
X263532545Y-37541547D01*
X263073314Y-37450200D01*
X262605086Y-37450200D01*
X262145855Y-37541547D01*
X261713268Y-37720730D01*
X261323951Y-37980864D01*
X260992864Y-38311951D01*
X260732730Y-38701268D01*
X260723378Y-38723845D01*
X260652805Y-38693200D01*
X259518805Y-39827200D01*
X260652805Y-40961200D01*
X260723378Y-40930555D01*
X260732730Y-40953132D01*
X260911925Y-41221315D01*
X259919841Y-42213400D01*
X257112326Y-42213400D01*
X256834200Y-41935274D01*
X256834200Y-41625086D01*
X256742853Y-41165855D01*
X256732477Y-41140805D01*
X258205200Y-41140805D01*
X258331114Y-41430777D01*
X258663326Y-41596633D01*
X259021512Y-41694490D01*
X259391906Y-41720589D01*
X259760275Y-41673925D01*
X260112462Y-41556294D01*
X260347286Y-41430777D01*
X260473200Y-41140805D01*
X259339200Y-40006805D01*
X258205200Y-41140805D01*
X256732477Y-41140805D01*
X256563670Y-40733268D01*
X256303536Y-40343951D01*
X255972449Y-40012864D01*
X255773464Y-39879906D01*
X257445811Y-39879906D01*
X257492475Y-40248275D01*
X257610106Y-40600462D01*
X257735623Y-40835286D01*
X258025595Y-40961200D01*
X259159595Y-39827200D01*
X258025595Y-38693200D01*
X257735623Y-38819114D01*
X257569767Y-39151326D01*
X257471910Y-39509512D01*
X257445811Y-39879906D01*
X255773464Y-39879906D01*
X255583132Y-39752730D01*
X255150545Y-39573547D01*
X254691314Y-39482200D01*
X254381126Y-39482200D01*
X254013420Y-39114495D01*
X254223086Y-39156200D01*
X254691314Y-39156200D01*
X255150545Y-39064853D01*
X255583132Y-38885670D01*
X255972449Y-38625536D01*
X256084390Y-38513595D01*
X258205200Y-38513595D01*
X259339200Y-39647595D01*
X260473200Y-38513595D01*
X260347286Y-38223623D01*
X260015074Y-38057767D01*
X259656888Y-37959910D01*
X259286494Y-37933811D01*
X258918125Y-37980475D01*
X258565938Y-38098106D01*
X258331114Y-38223623D01*
X258205200Y-38513595D01*
X256084390Y-38513595D01*
X256303536Y-38294449D01*
X256563670Y-37905132D01*
X256742853Y-37472545D01*
X256834200Y-37013314D01*
X256834200Y-36545086D01*
X256742853Y-36085855D01*
X256563670Y-35653268D01*
X256338200Y-35315829D01*
X256338200Y-34703785D01*
X256557536Y-34484449D01*
X256817670Y-34095132D01*
X256996853Y-33662545D01*
X257088200Y-33203314D01*
X257088200Y-32735086D01*
X256996853Y-32275855D01*
X256817670Y-31843268D01*
X256636170Y-31571634D01*
X262011076Y-31571634D01*
X262067698Y-31758307D01*
X262207801Y-32046582D01*
X262401452Y-32301985D01*
X262641208Y-32514701D01*
X262917856Y-32676556D01*
X263220765Y-32781329D01*
X263474200Y-32662515D01*
X263474200Y-31318200D01*
X263728200Y-31318200D01*
X263728200Y-32662515D01*
X263981635Y-32781329D01*
X264284544Y-32676556D01*
X264561192Y-32514701D01*
X264800948Y-32301985D01*
X264994599Y-32046582D01*
X265134702Y-31758307D01*
X265191324Y-31571634D01*
X265071977Y-31318200D01*
X263728200Y-31318200D01*
X263474200Y-31318200D01*
X262130423Y-31318200D01*
X262011076Y-31571634D01*
X256636170Y-31571634D01*
X256557536Y-31453951D01*
X256226449Y-31122864D01*
X255837132Y-30862730D01*
X255404545Y-30683547D01*
X254945314Y-30592200D01*
X254635125Y-30592200D01*
X254267420Y-30224495D01*
X254477086Y-30266200D01*
X254945314Y-30266200D01*
X255404545Y-30174853D01*
X255837132Y-29995670D01*
X256226449Y-29735536D01*
X256557536Y-29404449D01*
X256817670Y-29015132D01*
X256996853Y-28582545D01*
X257088200Y-28123314D01*
X257088200Y-27655086D01*
X256996853Y-27195855D01*
X256817670Y-26763268D01*
X256557536Y-26373951D01*
X256226449Y-26042864D01*
X255837132Y-25782730D01*
X255404545Y-25603547D01*
X254945314Y-25512200D01*
X254477086Y-25512200D01*
X254017855Y-25603547D01*
X253585268Y-25782730D01*
X253195951Y-26042864D01*
X252976615Y-26262200D01*
X249734200Y-26262200D01*
X249734200Y-24921125D01*
X249742072Y-24841200D01*
X249727200Y-24690200D01*
X261250875Y-24690200D01*
X261974200Y-25413525D01*
X261974201Y-26708447D01*
X261972043Y-26709600D01*
X261800435Y-26850435D01*
X261659600Y-27022043D01*
X261554950Y-27217829D01*
X261490507Y-27430269D01*
X261468747Y-27651200D01*
X261468747Y-29651200D01*
X261490507Y-29872131D01*
X261554950Y-30084571D01*
X261659600Y-30280357D01*
X261800435Y-30451965D01*
X261972043Y-30592800D01*
X262062521Y-30641161D01*
X262011076Y-30810766D01*
X262130423Y-31064200D01*
X263474200Y-31064200D01*
X263474200Y-31044200D01*
X263728200Y-31044200D01*
X263728200Y-31064200D01*
X265071977Y-31064200D01*
X265189953Y-30813678D01*
X266546200Y-32169926D01*
X266546201Y-44741273D01*
X263524728Y-47762747D01*
X261493200Y-47762747D01*
X261272269Y-47784507D01*
X261059829Y-47848950D01*
X260864043Y-47953600D01*
X260692435Y-48094435D01*
X260551600Y-48266043D01*
X260446950Y-48461829D01*
X260382507Y-48674269D01*
X260363406Y-48868200D01*
X242345125Y-48868200D01*
X242265200Y-48860328D01*
X242185275Y-48868200D01*
X241946252Y-48891742D01*
X241639562Y-48984775D01*
X241356914Y-49135854D01*
X241109171Y-49339171D01*
X241058222Y-49401253D01*
X238786728Y-51672747D01*
X235939200Y-51672747D01*
X235718269Y-51694507D01*
X235505829Y-51758950D01*
X235310043Y-51863600D01*
X235138435Y-52004435D01*
X234997600Y-52176043D01*
X234892950Y-52371829D01*
X234828507Y-52584269D01*
X234806747Y-52805200D01*
X234806747Y-55777000D01*
X233067608Y-55777000D01*
X232995389Y-55717731D01*
X232691548Y-55555325D01*
X232361862Y-55455316D01*
X232019000Y-55421547D01*
X230769000Y-55421547D01*
X230426138Y-55455316D01*
X230096452Y-55555325D01*
X229792611Y-55717731D01*
X229526293Y-55936293D01*
X229307731Y-56202611D01*
X229145325Y-56506452D01*
X229045316Y-56836138D01*
X229011547Y-57179000D01*
X229011547Y-58429000D01*
X229045316Y-58771862D01*
X229145325Y-59101548D01*
X229307731Y-59405389D01*
X229526293Y-59671707D01*
X229792611Y-59890269D01*
X230096452Y-60052675D01*
X230426138Y-60152684D01*
X230769000Y-60186453D01*
X232019000Y-60186453D01*
X232361862Y-60152684D01*
X232691548Y-60052675D01*
X232995389Y-59890269D01*
X233261707Y-59671707D01*
X233480269Y-59405389D01*
X233642675Y-59101548D01*
X233664075Y-59031000D01*
X241860486Y-59031000D01*
X241940400Y-59038871D01*
X242020314Y-59031000D01*
X242020325Y-59031000D01*
X242259348Y-59007458D01*
X242566038Y-58914425D01*
X242848686Y-58763346D01*
X243096429Y-58560029D01*
X243147379Y-58497946D01*
X244724298Y-56921028D01*
X244780463Y-56932200D01*
X245297937Y-56932200D01*
X245805468Y-56831246D01*
X246283551Y-56633217D01*
X246713815Y-56345724D01*
X247079724Y-55979815D01*
X247111539Y-55932200D01*
X258609275Y-55932200D01*
X260392329Y-57715254D01*
X260366200Y-57846614D01*
X260366200Y-58383786D01*
X260470997Y-58910637D01*
X260676564Y-59406919D01*
X260975001Y-59853561D01*
X261354839Y-60233399D01*
X261801481Y-60531836D01*
X262297763Y-60737403D01*
X262824614Y-60842200D01*
X263361786Y-60842200D01*
X263888637Y-60737403D01*
X264384919Y-60531836D01*
X264831561Y-60233399D01*
X265211399Y-59853561D01*
X265509836Y-59406919D01*
X265715403Y-58910637D01*
X265820200Y-58383786D01*
X265820200Y-57846614D01*
X265715403Y-57319763D01*
X265509836Y-56823481D01*
X265211399Y-56376839D01*
X264831561Y-55997001D01*
X264384919Y-55698564D01*
X263888637Y-55492997D01*
X263361786Y-55388200D01*
X262824614Y-55388200D01*
X262693254Y-55414329D01*
X260490178Y-53211253D01*
X260439229Y-53149171D01*
X260191486Y-52945854D01*
X259908838Y-52794775D01*
X259602148Y-52701742D01*
X259363125Y-52678200D01*
X259363114Y-52678200D01*
X259283200Y-52670329D01*
X259203286Y-52678200D01*
X247111539Y-52678200D01*
X247079724Y-52630585D01*
X246713815Y-52264676D01*
X246500584Y-52122200D01*
X260363406Y-52122200D01*
X260382507Y-52316131D01*
X260446950Y-52528571D01*
X260551600Y-52724357D01*
X260692435Y-52895965D01*
X260864043Y-53036800D01*
X261059829Y-53141450D01*
X261272269Y-53205893D01*
X261493200Y-53227653D01*
X264693200Y-53227653D01*
X264914131Y-53205893D01*
X265126571Y-53141450D01*
X265322357Y-53036800D01*
X265493965Y-52895965D01*
X265634800Y-52724357D01*
X265739450Y-52528571D01*
X265803893Y-52316131D01*
X265825653Y-52095200D01*
X265825653Y-50063672D01*
X269267151Y-46622175D01*
X269329229Y-46571229D01*
X269380175Y-46509151D01*
X269380178Y-46509148D01*
X269532546Y-46323486D01*
X269632935Y-46135672D01*
X269683625Y-46040838D01*
X269776658Y-45734148D01*
X269800200Y-45495125D01*
X269800200Y-45495117D01*
X269808071Y-45415200D01*
X269800200Y-45335283D01*
X269800200Y-31575925D01*
X269808072Y-31496000D01*
X269776658Y-31177052D01*
X269760220Y-31122864D01*
X269683625Y-30870362D01*
X269532546Y-30587714D01*
X269466427Y-30507147D01*
X269380178Y-30402052D01*
X269380175Y-30402049D01*
X269329229Y-30339971D01*
X269267152Y-30289026D01*
X266535379Y-27557254D01*
X266484429Y-27495171D01*
X266236686Y-27291854D01*
X265954038Y-27140775D01*
X265647348Y-27047742D01*
X265551490Y-27038301D01*
X265542800Y-27022043D01*
X265401965Y-26850435D01*
X265230357Y-26709600D01*
X265228200Y-26708447D01*
X265228200Y-24819525D01*
X265236072Y-24739600D01*
X265204658Y-24420652D01*
X265142445Y-24215563D01*
X265111625Y-24113962D01*
X264960546Y-23831314D01*
X264757229Y-23583571D01*
X264695147Y-23532622D01*
X263131780Y-21969255D01*
X263080829Y-21907171D01*
X262833086Y-21703854D01*
X262550438Y-21552775D01*
X262243748Y-21459742D01*
X262004725Y-21436200D01*
X262004714Y-21436200D01*
X261924800Y-21428329D01*
X261844886Y-21436200D01*
X246409114Y-21436200D01*
X246329200Y-21428329D01*
X246249286Y-21436200D01*
X232061785Y-21436200D01*
X231842449Y-21216864D01*
X231453132Y-20956730D01*
X231020545Y-20777547D01*
X230561314Y-20686200D01*
X230093086Y-20686200D01*
X229633855Y-20777547D01*
X229201268Y-20956730D01*
X228811951Y-21216864D01*
X228480864Y-21547951D01*
X228220730Y-21937268D01*
X228041547Y-22369855D01*
X227950200Y-22829086D01*
X227950200Y-23297314D01*
X228041547Y-23756545D01*
X228205972Y-24153502D01*
X226880655Y-25478819D01*
X226874200Y-25413277D01*
X226874200Y-24797785D01*
X227093536Y-24578449D01*
X227353670Y-24189132D01*
X227532853Y-23756545D01*
X227624200Y-23297314D01*
X227624200Y-22829086D01*
X227532853Y-22369855D01*
X227353670Y-21937268D01*
X227093536Y-21547951D01*
X226762449Y-21216864D01*
X226373132Y-20956730D01*
X225940545Y-20777547D01*
X225481314Y-20686200D01*
X225013086Y-20686200D01*
X224553855Y-20777547D01*
X224121268Y-20956730D01*
X223731951Y-21216864D01*
X223400864Y-21547951D01*
X223140730Y-21937268D01*
X222961547Y-22369855D01*
X222870200Y-22829086D01*
X222870200Y-23297314D01*
X222961547Y-23756545D01*
X223140730Y-24189132D01*
X223400864Y-24578449D01*
X223620201Y-24797786D01*
X223620201Y-24819275D01*
X220680916Y-27758561D01*
X220528123Y-27389688D01*
X220295349Y-27041316D01*
X219999084Y-26745051D01*
X219650712Y-26512277D01*
X219263623Y-26351939D01*
X218852691Y-26270200D01*
X218433709Y-26270200D01*
X218022777Y-26351939D01*
X217635688Y-26512277D01*
X217546007Y-26572200D01*
X212503785Y-26572200D01*
X212284449Y-26352864D01*
X211895132Y-26092730D01*
X211462545Y-25913547D01*
X211003314Y-25822200D01*
X210535086Y-25822200D01*
X210075855Y-25913547D01*
X209643268Y-26092730D01*
X209253951Y-26352864D01*
X208922864Y-26683951D01*
X208662730Y-27073268D01*
X208483547Y-27505855D01*
X208392200Y-27965086D01*
X208392200Y-28433314D01*
X208483547Y-28892545D01*
X208662730Y-29325132D01*
X208922864Y-29714449D01*
X209253951Y-30045536D01*
X209643268Y-30305670D01*
X209665845Y-30315022D01*
X209635200Y-30385595D01*
X210769200Y-31519595D01*
X211903200Y-30385595D01*
X211872555Y-30315022D01*
X211895132Y-30305670D01*
X212284449Y-30045536D01*
X212503785Y-29826200D01*
X216036004Y-29826200D01*
X216022009Y-29843253D01*
X212723255Y-33142007D01*
X212661171Y-33192958D01*
X212457854Y-33440702D01*
X212306775Y-33723350D01*
X212213742Y-34030040D01*
X212190200Y-34269063D01*
X212190200Y-34269073D01*
X212182329Y-34348987D01*
X212190200Y-34428902D01*
X212190201Y-40124614D01*
X211970864Y-40343951D01*
X211710730Y-40733268D01*
X211531547Y-41165855D01*
X211440200Y-41625086D01*
X211440200Y-41935275D01*
X205916050Y-47459425D01*
X205853972Y-47510371D01*
X205803026Y-47572449D01*
X205803022Y-47572453D01*
X205650654Y-47758115D01*
X205499576Y-48040762D01*
X205406543Y-48347453D01*
X205375129Y-48666400D01*
X204571200Y-48666400D01*
X204571200Y-42278845D01*
X206899505Y-42278845D01*
X206976067Y-42531248D01*
X207141017Y-42861915D01*
X207367307Y-43154048D01*
X207646241Y-43396421D01*
X207967100Y-43579719D01*
X208317554Y-43696899D01*
X208610200Y-43581171D01*
X208610200Y-41986200D01*
X208864200Y-41986200D01*
X208864200Y-43581171D01*
X209156846Y-43696899D01*
X209507300Y-43579719D01*
X209828159Y-43396421D01*
X210107093Y-43154048D01*
X210333383Y-42861915D01*
X210498333Y-42531248D01*
X210574895Y-42278845D01*
X210458772Y-41986200D01*
X208864200Y-41986200D01*
X208610200Y-41986200D01*
X207015628Y-41986200D01*
X206899505Y-42278845D01*
X204571200Y-42278845D01*
X204571200Y-41439555D01*
X206899505Y-41439555D01*
X207015628Y-41732200D01*
X208610200Y-41732200D01*
X208610200Y-40137229D01*
X208864200Y-40137229D01*
X208864200Y-41732200D01*
X210458772Y-41732200D01*
X210574895Y-41439555D01*
X210498333Y-41187152D01*
X210333383Y-40856485D01*
X210107093Y-40564352D01*
X209828159Y-40321979D01*
X209507300Y-40138681D01*
X209156846Y-40021501D01*
X208864200Y-40137229D01*
X208610200Y-40137229D01*
X208317554Y-40021501D01*
X207967100Y-40138681D01*
X207646241Y-40321979D01*
X207367307Y-40564352D01*
X207141017Y-40856485D01*
X206976067Y-41187152D01*
X206899505Y-41439555D01*
X204571200Y-41439555D01*
X204571200Y-33012805D01*
X209635200Y-33012805D01*
X209761114Y-33302777D01*
X210093326Y-33468633D01*
X210451512Y-33566490D01*
X210821906Y-33592589D01*
X211190275Y-33545925D01*
X211542462Y-33428294D01*
X211777286Y-33302777D01*
X211903200Y-33012805D01*
X210769200Y-31878805D01*
X209635200Y-33012805D01*
X204571200Y-33012805D01*
X204571200Y-31751906D01*
X208875811Y-31751906D01*
X208922475Y-32120275D01*
X209040106Y-32472462D01*
X209165623Y-32707286D01*
X209455595Y-32833200D01*
X210589595Y-31699200D01*
X210948805Y-31699200D01*
X212082805Y-32833200D01*
X212372777Y-32707286D01*
X212538633Y-32375074D01*
X212636490Y-32016888D01*
X212662589Y-31646494D01*
X212615925Y-31278125D01*
X212498294Y-30925938D01*
X212372777Y-30691114D01*
X212082805Y-30565200D01*
X210948805Y-31699200D01*
X210589595Y-31699200D01*
X209455595Y-30565200D01*
X209165623Y-30691114D01*
X208999767Y-31023326D01*
X208901910Y-31381512D01*
X208875811Y-31751906D01*
X204571200Y-31751906D01*
X204571200Y-20167200D01*
X271170800Y-20167200D01*
X271170801Y-61062000D01*
%TA.AperFunction,Conductor*%
D23*
G36*
X271170801Y-61062000D02*
G01*
X204571200Y-61062000D01*
X204571200Y-59054000D01*
X224425928Y-59054000D01*
X224438188Y-59178482D01*
X224474498Y-59298180D01*
X224533463Y-59408494D01*
X224612815Y-59505185D01*
X224709506Y-59584537D01*
X224819820Y-59643502D01*
X224939518Y-59679812D01*
X225064000Y-59692072D01*
X226028250Y-59689000D01*
X226187000Y-59530250D01*
X226187000Y-57931000D01*
X226441000Y-57931000D01*
X226441000Y-59530250D01*
X226599750Y-59689000D01*
X227564000Y-59692072D01*
X227688482Y-59679812D01*
X227808180Y-59643502D01*
X227918494Y-59584537D01*
X228015185Y-59505185D01*
X228094537Y-59408494D01*
X228153502Y-59298180D01*
X228189812Y-59178482D01*
X228202072Y-59054000D01*
X228199000Y-58089750D01*
X228040250Y-57931000D01*
X226441000Y-57931000D01*
X226187000Y-57931000D01*
X224587750Y-57931000D01*
X224429000Y-58089750D01*
X224425928Y-59054000D01*
X204571200Y-59054000D01*
X204571200Y-48666400D01*
X205375129Y-48666400D01*
X205383001Y-48746324D01*
X205383000Y-53006085D01*
X205375129Y-53086000D01*
X205383000Y-53165914D01*
X205383000Y-53165924D01*
X205406542Y-53404947D01*
X205499575Y-53711637D01*
X205650654Y-53994285D01*
X205853971Y-54242029D01*
X205916054Y-54292979D01*
X207645372Y-56022298D01*
X207634200Y-56078463D01*
X207634200Y-56595937D01*
X207735154Y-57103468D01*
X207933183Y-57581551D01*
X208220676Y-58011815D01*
X208586585Y-58377724D01*
X209016849Y-58665217D01*
X209494932Y-58863246D01*
X210002463Y-58964200D01*
X210519937Y-58964200D01*
X211027468Y-58863246D01*
X211505551Y-58665217D01*
X211935815Y-58377724D01*
X212301724Y-58011815D01*
X212333539Y-57964200D01*
X214688861Y-57964200D01*
X214720676Y-58011815D01*
X215086585Y-58377724D01*
X215516849Y-58665217D01*
X215994932Y-58863246D01*
X216502463Y-58964200D01*
X217019937Y-58964200D01*
X217527468Y-58863246D01*
X218005551Y-58665217D01*
X218435815Y-58377724D01*
X218801724Y-58011815D01*
X219089217Y-57581551D01*
X219287246Y-57103468D01*
X219388200Y-56595937D01*
X219388200Y-56554000D01*
X224425928Y-56554000D01*
X224429000Y-57518250D01*
X224587750Y-57677000D01*
X226187000Y-57677000D01*
X226187000Y-56077750D01*
X226441000Y-56077750D01*
X226441000Y-57677000D01*
X228040250Y-57677000D01*
X228199000Y-57518250D01*
X228202072Y-56554000D01*
X228189812Y-56429518D01*
X228153502Y-56309820D01*
X228094537Y-56199506D01*
X228015185Y-56102815D01*
X227918494Y-56023463D01*
X227808180Y-55964498D01*
X227688482Y-55928188D01*
X227564000Y-55915928D01*
X226599750Y-55919000D01*
X226441000Y-56077750D01*
X226187000Y-56077750D01*
X226028250Y-55919000D01*
X225064000Y-55915928D01*
X224939518Y-55928188D01*
X224819820Y-55964498D01*
X224709506Y-56023463D01*
X224612815Y-56102815D01*
X224533463Y-56199506D01*
X224474498Y-56309820D01*
X224438188Y-56429518D01*
X224425928Y-56554000D01*
X219388200Y-56554000D01*
X219388200Y-56078463D01*
X219287246Y-55570932D01*
X219089217Y-55092849D01*
X218801724Y-54662585D01*
X218435815Y-54296676D01*
X218122312Y-54087200D01*
X218435815Y-53877724D01*
X218801724Y-53511815D01*
X219089217Y-53081551D01*
X219287246Y-52603468D01*
X219388200Y-52095937D01*
X219388200Y-51964201D01*
X224055285Y-51964201D01*
X224135199Y-51972072D01*
X224215113Y-51964201D01*
X224215124Y-51964201D01*
X224454147Y-51940659D01*
X224760837Y-51847626D01*
X225043485Y-51696547D01*
X225291228Y-51493230D01*
X225342178Y-51431147D01*
X228219126Y-48554200D01*
X228529314Y-48554200D01*
X228988545Y-48462853D01*
X229421132Y-48283670D01*
X229585899Y-48173576D01*
X226946718Y-50812757D01*
X226616138Y-50845316D01*
X226286452Y-50945325D01*
X225982611Y-51107731D01*
X225716293Y-51326293D01*
X225497731Y-51592611D01*
X225335325Y-51896452D01*
X225235316Y-52226138D01*
X225201547Y-52569000D01*
X225201547Y-53819000D01*
X225235316Y-54161862D01*
X225335325Y-54491548D01*
X225497731Y-54795389D01*
X225716293Y-55061707D01*
X225982611Y-55280269D01*
X226286452Y-55442675D01*
X226616138Y-55542684D01*
X226959000Y-55576453D01*
X228209000Y-55576453D01*
X228551862Y-55542684D01*
X228881548Y-55442675D01*
X229185389Y-55280269D01*
X229451707Y-55061707D01*
X229670269Y-54795389D01*
X229832675Y-54491548D01*
X229932684Y-54161862D01*
X229966453Y-53819000D01*
X229966453Y-52569000D01*
X229950841Y-52410484D01*
X235331125Y-47030200D01*
X235641314Y-47030200D01*
X236100545Y-46938853D01*
X236533132Y-46759670D01*
X236922449Y-46499536D01*
X237253536Y-46168449D01*
X237513670Y-45779132D01*
X237692853Y-45346545D01*
X237784200Y-44887314D01*
X237784200Y-44419086D01*
X237692853Y-43959855D01*
X237513670Y-43527268D01*
X237253536Y-43137951D01*
X236922449Y-42806864D01*
X236533132Y-42546730D01*
X236100545Y-42367547D01*
X235641314Y-42276200D01*
X235173086Y-42276200D01*
X234713855Y-42367547D01*
X234281268Y-42546730D01*
X233891951Y-42806864D01*
X233560864Y-43137951D01*
X233300730Y-43527268D01*
X233121547Y-43959855D01*
X233030200Y-44419086D01*
X233030200Y-44729275D01*
X230291576Y-47467899D01*
X230401670Y-47303132D01*
X230580853Y-46870545D01*
X230672200Y-46411314D01*
X230672200Y-46101125D01*
X231026178Y-45747147D01*
X232030751Y-44742575D01*
X232092829Y-44691629D01*
X232143775Y-44629551D01*
X232143778Y-44629548D01*
X232296146Y-44443886D01*
X232361726Y-44321195D01*
X232447225Y-44161238D01*
X232540258Y-43854548D01*
X232563800Y-43615525D01*
X232563800Y-43615515D01*
X232571671Y-43535601D01*
X232563800Y-43455686D01*
X232563800Y-41815785D01*
X232783136Y-41596449D01*
X232917870Y-41394805D01*
X233302800Y-41394805D01*
X233428714Y-41684777D01*
X233760926Y-41850633D01*
X234119112Y-41948490D01*
X234489506Y-41974589D01*
X234857875Y-41927925D01*
X235210062Y-41810294D01*
X235444886Y-41684777D01*
X235570800Y-41394805D01*
X234436800Y-40260805D01*
X233302800Y-41394805D01*
X232917870Y-41394805D01*
X233043270Y-41207132D01*
X233052622Y-41184555D01*
X233123195Y-41215200D01*
X234257195Y-40081200D01*
X234616405Y-40081200D01*
X235750405Y-41215200D01*
X236040377Y-41089286D01*
X236206233Y-40757074D01*
X236304090Y-40398888D01*
X236330189Y-40028494D01*
X236283525Y-39660125D01*
X236165894Y-39307938D01*
X236040377Y-39073114D01*
X235750405Y-38947200D01*
X234616405Y-40081200D01*
X234257195Y-40081200D01*
X233123195Y-38947200D01*
X233052622Y-38977845D01*
X233043270Y-38955268D01*
X232917871Y-38767595D01*
X233302800Y-38767595D01*
X234436800Y-39901595D01*
X235570800Y-38767595D01*
X235444886Y-38477623D01*
X235112674Y-38311767D01*
X234754488Y-38213910D01*
X234384094Y-38187811D01*
X234015725Y-38234475D01*
X233663538Y-38352106D01*
X233428714Y-38477623D01*
X233302800Y-38767595D01*
X232917871Y-38767595D01*
X232783136Y-38565951D01*
X232452049Y-38234864D01*
X232062732Y-37974730D01*
X231630145Y-37795547D01*
X231170914Y-37704200D01*
X230702686Y-37704200D01*
X230243455Y-37795547D01*
X229810868Y-37974730D01*
X229421551Y-38234864D01*
X229090464Y-38565951D01*
X228830330Y-38955268D01*
X228651147Y-39387855D01*
X228559800Y-39847086D01*
X228559800Y-40315314D01*
X228651147Y-40774545D01*
X228830330Y-41207132D01*
X229090464Y-41596449D01*
X229309801Y-41815786D01*
X229309801Y-42861674D01*
X228371275Y-43800200D01*
X228061086Y-43800200D01*
X227601855Y-43891547D01*
X227169268Y-44070730D01*
X226779951Y-44330864D01*
X226448864Y-44661951D01*
X226188730Y-45051268D01*
X226009547Y-45483855D01*
X225918200Y-45943086D01*
X225918200Y-46253274D01*
X225550495Y-46620980D01*
X225592200Y-46411314D01*
X225592200Y-45943086D01*
X225500853Y-45483855D01*
X225321670Y-45051268D01*
X225061536Y-44661951D01*
X224730449Y-44330864D01*
X224692200Y-44305307D01*
X224692200Y-37295994D01*
X224732663Y-37371694D01*
X224812015Y-37468385D01*
X224908706Y-37547737D01*
X225019020Y-37606702D01*
X225138718Y-37643012D01*
X225263200Y-37655272D01*
X225977450Y-37652200D01*
X226136200Y-37493450D01*
X226136200Y-36144200D01*
X226390200Y-36144200D01*
X226390200Y-37493450D01*
X226548950Y-37652200D01*
X227263200Y-37655272D01*
X227387682Y-37643012D01*
X227507380Y-37606702D01*
X227617694Y-37547737D01*
X227714385Y-37468385D01*
X227793737Y-37371694D01*
X227852702Y-37261380D01*
X227889012Y-37141682D01*
X227901272Y-37017200D01*
X227898200Y-36302950D01*
X227739450Y-36144200D01*
X226390200Y-36144200D01*
X226136200Y-36144200D01*
X226116200Y-36144200D01*
X226116200Y-35890200D01*
X226136200Y-35890200D01*
X226136200Y-35870200D01*
X226390200Y-35870200D01*
X226390200Y-35890200D01*
X227739450Y-35890200D01*
X227898200Y-35731450D01*
X227901272Y-35017200D01*
X227889012Y-34892718D01*
X227881262Y-34867171D01*
X227915349Y-34833084D01*
X228148123Y-34484712D01*
X228308461Y-34097623D01*
X228390200Y-33686691D01*
X228390200Y-33267709D01*
X228308461Y-32856777D01*
X228187271Y-32564200D01*
X229533273Y-32564200D01*
X233572218Y-36603145D01*
X233623169Y-36665229D01*
X233749058Y-36768543D01*
X233870911Y-36868546D01*
X234015344Y-36945747D01*
X234153560Y-37019625D01*
X234460250Y-37112658D01*
X234699273Y-37136200D01*
X234699283Y-37136200D01*
X234779197Y-37144071D01*
X234859112Y-37136200D01*
X239106167Y-37136200D01*
X239131316Y-37161349D01*
X239479688Y-37394123D01*
X239866777Y-37554461D01*
X240277709Y-37636200D01*
X240696691Y-37636200D01*
X241107623Y-37554461D01*
X241360202Y-37449839D01*
X241360201Y-41479273D01*
X240563275Y-42276200D01*
X240253086Y-42276200D01*
X239793855Y-42367547D01*
X239361268Y-42546730D01*
X238971951Y-42806864D01*
X238640864Y-43137951D01*
X238380730Y-43527268D01*
X238201547Y-43959855D01*
X238110200Y-44419086D01*
X238110200Y-44887314D01*
X238201547Y-45346545D01*
X238380730Y-45779132D01*
X238640864Y-46168449D01*
X238971951Y-46499536D01*
X239361268Y-46759670D01*
X239793855Y-46938853D01*
X240253086Y-47030200D01*
X240721314Y-47030200D01*
X241180545Y-46938853D01*
X241613132Y-46759670D01*
X242002449Y-46499536D01*
X242333536Y-46168449D01*
X242593670Y-45779132D01*
X242772853Y-45346545D01*
X242864200Y-44887314D01*
X242864200Y-44577125D01*
X244081153Y-43360173D01*
X244143230Y-43309228D01*
X244194176Y-43247150D01*
X244194179Y-43247147D01*
X244346547Y-43061485D01*
X244497625Y-42778839D01*
X244501069Y-42767486D01*
X244590659Y-42472147D01*
X244614201Y-42233124D01*
X244614201Y-42233114D01*
X244622072Y-42153200D01*
X244614201Y-42073285D01*
X244614201Y-34389124D01*
X244622073Y-34309199D01*
X244590659Y-33990251D01*
X244565024Y-33905743D01*
X244497626Y-33683561D01*
X244346547Y-33400913D01*
X244255104Y-33289489D01*
X244194179Y-33215251D01*
X244194176Y-33215248D01*
X244143230Y-33153170D01*
X244081152Y-33102224D01*
X242854179Y-31875252D01*
X242803231Y-31813171D01*
X242555488Y-31609854D01*
X242335133Y-31492071D01*
X242372123Y-31436712D01*
X242532461Y-31049623D01*
X242614200Y-30638691D01*
X242614200Y-30219709D01*
X242532461Y-29808777D01*
X242372123Y-29421688D01*
X242139349Y-29073316D01*
X242105262Y-29039229D01*
X242113012Y-29013682D01*
X242125272Y-28889200D01*
X242122200Y-28174950D01*
X241963450Y-28016200D01*
X240614200Y-28016200D01*
X240614200Y-28036200D01*
X240360200Y-28036200D01*
X240360200Y-28016200D01*
X239010950Y-28016200D01*
X238852200Y-28174950D01*
X238849128Y-28889200D01*
X238861388Y-29013682D01*
X238869138Y-29039229D01*
X238835051Y-29073316D01*
X238602277Y-29421688D01*
X238441939Y-29808777D01*
X238360200Y-30219709D01*
X238360200Y-30638691D01*
X238441939Y-31049623D01*
X238563129Y-31342200D01*
X238113125Y-31342200D01*
X236265653Y-29494728D01*
X236265653Y-28163200D01*
X236243893Y-27942269D01*
X236179450Y-27729829D01*
X236074800Y-27534043D01*
X235933965Y-27362435D01*
X235762357Y-27221600D01*
X235566571Y-27116950D01*
X235354131Y-27052507D01*
X235133200Y-27030747D01*
X232633200Y-27030747D01*
X232412269Y-27052507D01*
X232199829Y-27116950D01*
X232004043Y-27221600D01*
X231832435Y-27362435D01*
X231691600Y-27534043D01*
X231586950Y-27729829D01*
X231522507Y-27942269D01*
X231500747Y-28163200D01*
X231500747Y-29929824D01*
X231414176Y-29843253D01*
X231363227Y-29781171D01*
X231115484Y-29577854D01*
X230832836Y-29426775D01*
X230526146Y-29333742D01*
X230287123Y-29310200D01*
X230287112Y-29310200D01*
X230207198Y-29302329D01*
X230127284Y-29310200D01*
X228187271Y-29310200D01*
X228308461Y-29017623D01*
X228390200Y-28606691D01*
X228390200Y-28571125D01*
X230072125Y-26889200D01*
X238849128Y-26889200D01*
X238852200Y-27603450D01*
X239010950Y-27762200D01*
X240360200Y-27762200D01*
X240360200Y-26412950D01*
X240614200Y-26412950D01*
X240614200Y-27762200D01*
X241963450Y-27762200D01*
X242122200Y-27603450D01*
X242125272Y-26889200D01*
X242113012Y-26764718D01*
X242076702Y-26645020D01*
X242017737Y-26534706D01*
X241938385Y-26438015D01*
X241841694Y-26358663D01*
X241731380Y-26299698D01*
X241611682Y-26263388D01*
X241487200Y-26251128D01*
X240772950Y-26254200D01*
X240614200Y-26412950D01*
X240360200Y-26412950D01*
X240201450Y-26254200D01*
X239487200Y-26251128D01*
X239362718Y-26263388D01*
X239243020Y-26299698D01*
X239132706Y-26358663D01*
X239036015Y-26438015D01*
X238956663Y-26534706D01*
X238897698Y-26645020D01*
X238861388Y-26764718D01*
X238849128Y-26889200D01*
X230072125Y-26889200D01*
X231421152Y-25540174D01*
X231483229Y-25489229D01*
X231534175Y-25427151D01*
X231534178Y-25427148D01*
X231686546Y-25241486D01*
X231722482Y-25174255D01*
X231837625Y-24958838D01*
X231856992Y-24894993D01*
X232061785Y-24690200D01*
X245655275Y-24690200D01*
X246480200Y-25515126D01*
X246480201Y-26508166D01*
X246455051Y-26533316D01*
X246222277Y-26881688D01*
X246061939Y-27268777D01*
X245980200Y-27679709D01*
X245980200Y-28098691D01*
X246061939Y-28509623D01*
X246222277Y-28896712D01*
X246397665Y-29159200D01*
X246222277Y-29421688D01*
X246061939Y-29808777D01*
X245980200Y-30219709D01*
X245980200Y-30638691D01*
X246061939Y-31049623D01*
X246222277Y-31436712D01*
X246397665Y-31699200D01*
X246222277Y-31961688D01*
X246061939Y-32348777D01*
X245980200Y-32759709D01*
X245980200Y-33178691D01*
X246061939Y-33589623D01*
X246222277Y-33976712D01*
X246397665Y-34239200D01*
X246222277Y-34501688D01*
X246061939Y-34888777D01*
X245980200Y-35299709D01*
X245980200Y-35335275D01*
X245895654Y-35419821D01*
X245833571Y-35470771D01*
X245630254Y-35718515D01*
X245479175Y-36001163D01*
X245386142Y-36307853D01*
X245362600Y-36546876D01*
X245362600Y-36546886D01*
X245354729Y-36626800D01*
X245362600Y-36706715D01*
X245362601Y-42766214D01*
X245143264Y-42985551D01*
X244883130Y-43374868D01*
X244703947Y-43807455D01*
X244612600Y-44266686D01*
X244612600Y-44734914D01*
X244703947Y-45194145D01*
X244883130Y-45626732D01*
X245143264Y-46016049D01*
X245474351Y-46347136D01*
X245863668Y-46607270D01*
X246296255Y-46786453D01*
X246755486Y-46877800D01*
X247223714Y-46877800D01*
X247682945Y-46786453D01*
X248115532Y-46607270D01*
X248504849Y-46347136D01*
X248835936Y-46016049D01*
X248970670Y-45814405D01*
X249355600Y-45814405D01*
X249481514Y-46104377D01*
X249813726Y-46270233D01*
X250171912Y-46368090D01*
X250542306Y-46394189D01*
X250910675Y-46347525D01*
X251262862Y-46229894D01*
X251497686Y-46104377D01*
X251623600Y-45814405D01*
X250489600Y-44680405D01*
X249355600Y-45814405D01*
X248970670Y-45814405D01*
X249096070Y-45626732D01*
X249105422Y-45604155D01*
X249175995Y-45634800D01*
X250309995Y-44500800D01*
X250669205Y-44500800D01*
X251803205Y-45634800D01*
X252093177Y-45508886D01*
X252259033Y-45176674D01*
X252356890Y-44818488D01*
X252382989Y-44448094D01*
X252336325Y-44079725D01*
X252218694Y-43727538D01*
X252093177Y-43492714D01*
X251803205Y-43366800D01*
X250669205Y-44500800D01*
X250309995Y-44500800D01*
X249175995Y-43366800D01*
X249105422Y-43397445D01*
X249096070Y-43374868D01*
X248970671Y-43187195D01*
X249355600Y-43187195D01*
X250489600Y-44321195D01*
X251623600Y-43187195D01*
X251497686Y-42897223D01*
X251165474Y-42731367D01*
X250807288Y-42633510D01*
X250436894Y-42607411D01*
X250068525Y-42654075D01*
X249716338Y-42771706D01*
X249481514Y-42897223D01*
X249355600Y-43187195D01*
X248970671Y-43187195D01*
X248835936Y-42985551D01*
X248616600Y-42766215D01*
X248616600Y-37576545D01*
X248727623Y-37554461D01*
X249114712Y-37394123D01*
X249463084Y-37161349D01*
X249759349Y-36865084D01*
X249992123Y-36516712D01*
X250080199Y-36304078D01*
X250080200Y-39029275D01*
X250072328Y-39109199D01*
X250080200Y-39189124D01*
X250103742Y-39428147D01*
X250196775Y-39734837D01*
X250347853Y-40017484D01*
X250500221Y-40203146D01*
X250500225Y-40203150D01*
X250551171Y-40265228D01*
X250613249Y-40316174D01*
X252080200Y-41783126D01*
X252080200Y-42093314D01*
X252171547Y-42552545D01*
X252350730Y-42985132D01*
X252610864Y-43374449D01*
X252941951Y-43705536D01*
X253331268Y-43965670D01*
X253763855Y-44144853D01*
X254223086Y-44236200D01*
X254533274Y-44236200D01*
X255231425Y-44934351D01*
X255282371Y-44996429D01*
X255344449Y-45047375D01*
X255344452Y-45047378D01*
X255456165Y-45139058D01*
X255530114Y-45199746D01*
X255812762Y-45350825D01*
X256119452Y-45443858D01*
X256358475Y-45467400D01*
X256358483Y-45467400D01*
X256438400Y-45475271D01*
X256518317Y-45467400D01*
X260513852Y-45467400D01*
X260593766Y-45475271D01*
X260673680Y-45467400D01*
X260673691Y-45467400D01*
X260912714Y-45443858D01*
X261219404Y-45350825D01*
X261502052Y-45199746D01*
X261749795Y-44996429D01*
X261800745Y-44934346D01*
X263933152Y-42801940D01*
X263995229Y-42750995D01*
X264046175Y-42688917D01*
X264046178Y-42688914D01*
X264198546Y-42503252D01*
X264349624Y-42220606D01*
X264359615Y-42187670D01*
X264442658Y-41913914D01*
X264466200Y-41674891D01*
X264466200Y-41674881D01*
X264474071Y-41594967D01*
X264470390Y-41557595D01*
X264685536Y-41342449D01*
X264945670Y-40953132D01*
X265124853Y-40520545D01*
X265216200Y-40061314D01*
X265216200Y-39593086D01*
X265124853Y-39133855D01*
X264945670Y-38701268D01*
X264685536Y-38311951D01*
X264354449Y-37980864D01*
X263965132Y-37720730D01*
X263532545Y-37541547D01*
X263073314Y-37450200D01*
X262605086Y-37450200D01*
X262145855Y-37541547D01*
X261713268Y-37720730D01*
X261323951Y-37980864D01*
X260992864Y-38311951D01*
X260732730Y-38701268D01*
X260723378Y-38723845D01*
X260652805Y-38693200D01*
X259518805Y-39827200D01*
X260652805Y-40961200D01*
X260723378Y-40930555D01*
X260732730Y-40953132D01*
X260911925Y-41221315D01*
X259919841Y-42213400D01*
X257112326Y-42213400D01*
X256834200Y-41935274D01*
X256834200Y-41625086D01*
X256742853Y-41165855D01*
X256732477Y-41140805D01*
X258205200Y-41140805D01*
X258331114Y-41430777D01*
X258663326Y-41596633D01*
X259021512Y-41694490D01*
X259391906Y-41720589D01*
X259760275Y-41673925D01*
X260112462Y-41556294D01*
X260347286Y-41430777D01*
X260473200Y-41140805D01*
X259339200Y-40006805D01*
X258205200Y-41140805D01*
X256732477Y-41140805D01*
X256563670Y-40733268D01*
X256303536Y-40343951D01*
X255972449Y-40012864D01*
X255773464Y-39879906D01*
X257445811Y-39879906D01*
X257492475Y-40248275D01*
X257610106Y-40600462D01*
X257735623Y-40835286D01*
X258025595Y-40961200D01*
X259159595Y-39827200D01*
X258025595Y-38693200D01*
X257735623Y-38819114D01*
X257569767Y-39151326D01*
X257471910Y-39509512D01*
X257445811Y-39879906D01*
X255773464Y-39879906D01*
X255583132Y-39752730D01*
X255150545Y-39573547D01*
X254691314Y-39482200D01*
X254381126Y-39482200D01*
X254013420Y-39114495D01*
X254223086Y-39156200D01*
X254691314Y-39156200D01*
X255150545Y-39064853D01*
X255583132Y-38885670D01*
X255972449Y-38625536D01*
X256084390Y-38513595D01*
X258205200Y-38513595D01*
X259339200Y-39647595D01*
X260473200Y-38513595D01*
X260347286Y-38223623D01*
X260015074Y-38057767D01*
X259656888Y-37959910D01*
X259286494Y-37933811D01*
X258918125Y-37980475D01*
X258565938Y-38098106D01*
X258331114Y-38223623D01*
X258205200Y-38513595D01*
X256084390Y-38513595D01*
X256303536Y-38294449D01*
X256563670Y-37905132D01*
X256742853Y-37472545D01*
X256834200Y-37013314D01*
X256834200Y-36545086D01*
X256742853Y-36085855D01*
X256563670Y-35653268D01*
X256338200Y-35315829D01*
X256338200Y-34703785D01*
X256557536Y-34484449D01*
X256817670Y-34095132D01*
X256996853Y-33662545D01*
X257088200Y-33203314D01*
X257088200Y-32735086D01*
X256996853Y-32275855D01*
X256817670Y-31843268D01*
X256636170Y-31571634D01*
X262011076Y-31571634D01*
X262067698Y-31758307D01*
X262207801Y-32046582D01*
X262401452Y-32301985D01*
X262641208Y-32514701D01*
X262917856Y-32676556D01*
X263220765Y-32781329D01*
X263474200Y-32662515D01*
X263474200Y-31318200D01*
X263728200Y-31318200D01*
X263728200Y-32662515D01*
X263981635Y-32781329D01*
X264284544Y-32676556D01*
X264561192Y-32514701D01*
X264800948Y-32301985D01*
X264994599Y-32046582D01*
X265134702Y-31758307D01*
X265191324Y-31571634D01*
X265071977Y-31318200D01*
X263728200Y-31318200D01*
X263474200Y-31318200D01*
X262130423Y-31318200D01*
X262011076Y-31571634D01*
X256636170Y-31571634D01*
X256557536Y-31453951D01*
X256226449Y-31122864D01*
X255837132Y-30862730D01*
X255404545Y-30683547D01*
X254945314Y-30592200D01*
X254635125Y-30592200D01*
X254267420Y-30224495D01*
X254477086Y-30266200D01*
X254945314Y-30266200D01*
X255404545Y-30174853D01*
X255837132Y-29995670D01*
X256226449Y-29735536D01*
X256557536Y-29404449D01*
X256817670Y-29015132D01*
X256996853Y-28582545D01*
X257088200Y-28123314D01*
X257088200Y-27655086D01*
X256996853Y-27195855D01*
X256817670Y-26763268D01*
X256557536Y-26373951D01*
X256226449Y-26042864D01*
X255837132Y-25782730D01*
X255404545Y-25603547D01*
X254945314Y-25512200D01*
X254477086Y-25512200D01*
X254017855Y-25603547D01*
X253585268Y-25782730D01*
X253195951Y-26042864D01*
X252976615Y-26262200D01*
X249734200Y-26262200D01*
X249734200Y-24921125D01*
X249742072Y-24841200D01*
X249727200Y-24690200D01*
X261250875Y-24690200D01*
X261974200Y-25413525D01*
X261974201Y-26708447D01*
X261972043Y-26709600D01*
X261800435Y-26850435D01*
X261659600Y-27022043D01*
X261554950Y-27217829D01*
X261490507Y-27430269D01*
X261468747Y-27651200D01*
X261468747Y-29651200D01*
X261490507Y-29872131D01*
X261554950Y-30084571D01*
X261659600Y-30280357D01*
X261800435Y-30451965D01*
X261972043Y-30592800D01*
X262062521Y-30641161D01*
X262011076Y-30810766D01*
X262130423Y-31064200D01*
X263474200Y-31064200D01*
X263474200Y-31044200D01*
X263728200Y-31044200D01*
X263728200Y-31064200D01*
X265071977Y-31064200D01*
X265189953Y-30813678D01*
X266546200Y-32169926D01*
X266546201Y-44741273D01*
X263524728Y-47762747D01*
X261493200Y-47762747D01*
X261272269Y-47784507D01*
X261059829Y-47848950D01*
X260864043Y-47953600D01*
X260692435Y-48094435D01*
X260551600Y-48266043D01*
X260446950Y-48461829D01*
X260382507Y-48674269D01*
X260363406Y-48868200D01*
X242345125Y-48868200D01*
X242265200Y-48860328D01*
X242185275Y-48868200D01*
X241946252Y-48891742D01*
X241639562Y-48984775D01*
X241356914Y-49135854D01*
X241109171Y-49339171D01*
X241058222Y-49401253D01*
X238786728Y-51672747D01*
X235939200Y-51672747D01*
X235718269Y-51694507D01*
X235505829Y-51758950D01*
X235310043Y-51863600D01*
X235138435Y-52004435D01*
X234997600Y-52176043D01*
X234892950Y-52371829D01*
X234828507Y-52584269D01*
X234806747Y-52805200D01*
X234806747Y-55777000D01*
X233067608Y-55777000D01*
X232995389Y-55717731D01*
X232691548Y-55555325D01*
X232361862Y-55455316D01*
X232019000Y-55421547D01*
X230769000Y-55421547D01*
X230426138Y-55455316D01*
X230096452Y-55555325D01*
X229792611Y-55717731D01*
X229526293Y-55936293D01*
X229307731Y-56202611D01*
X229145325Y-56506452D01*
X229045316Y-56836138D01*
X229011547Y-57179000D01*
X229011547Y-58429000D01*
X229045316Y-58771862D01*
X229145325Y-59101548D01*
X229307731Y-59405389D01*
X229526293Y-59671707D01*
X229792611Y-59890269D01*
X230096452Y-60052675D01*
X230426138Y-60152684D01*
X230769000Y-60186453D01*
X232019000Y-60186453D01*
X232361862Y-60152684D01*
X232691548Y-60052675D01*
X232995389Y-59890269D01*
X233261707Y-59671707D01*
X233480269Y-59405389D01*
X233642675Y-59101548D01*
X233664075Y-59031000D01*
X241860486Y-59031000D01*
X241940400Y-59038871D01*
X242020314Y-59031000D01*
X242020325Y-59031000D01*
X242259348Y-59007458D01*
X242566038Y-58914425D01*
X242848686Y-58763346D01*
X243096429Y-58560029D01*
X243147379Y-58497946D01*
X244724298Y-56921028D01*
X244780463Y-56932200D01*
X245297937Y-56932200D01*
X245805468Y-56831246D01*
X246283551Y-56633217D01*
X246713815Y-56345724D01*
X247079724Y-55979815D01*
X247111539Y-55932200D01*
X258609275Y-55932200D01*
X260392329Y-57715254D01*
X260366200Y-57846614D01*
X260366200Y-58383786D01*
X260470997Y-58910637D01*
X260676564Y-59406919D01*
X260975001Y-59853561D01*
X261354839Y-60233399D01*
X261801481Y-60531836D01*
X262297763Y-60737403D01*
X262824614Y-60842200D01*
X263361786Y-60842200D01*
X263888637Y-60737403D01*
X264384919Y-60531836D01*
X264831561Y-60233399D01*
X265211399Y-59853561D01*
X265509836Y-59406919D01*
X265715403Y-58910637D01*
X265820200Y-58383786D01*
X265820200Y-57846614D01*
X265715403Y-57319763D01*
X265509836Y-56823481D01*
X265211399Y-56376839D01*
X264831561Y-55997001D01*
X264384919Y-55698564D01*
X263888637Y-55492997D01*
X263361786Y-55388200D01*
X262824614Y-55388200D01*
X262693254Y-55414329D01*
X260490178Y-53211253D01*
X260439229Y-53149171D01*
X260191486Y-52945854D01*
X259908838Y-52794775D01*
X259602148Y-52701742D01*
X259363125Y-52678200D01*
X259363114Y-52678200D01*
X259283200Y-52670329D01*
X259203286Y-52678200D01*
X247111539Y-52678200D01*
X247079724Y-52630585D01*
X246713815Y-52264676D01*
X246500584Y-52122200D01*
X260363406Y-52122200D01*
X260382507Y-52316131D01*
X260446950Y-52528571D01*
X260551600Y-52724357D01*
X260692435Y-52895965D01*
X260864043Y-53036800D01*
X261059829Y-53141450D01*
X261272269Y-53205893D01*
X261493200Y-53227653D01*
X264693200Y-53227653D01*
X264914131Y-53205893D01*
X265126571Y-53141450D01*
X265322357Y-53036800D01*
X265493965Y-52895965D01*
X265634800Y-52724357D01*
X265739450Y-52528571D01*
X265803893Y-52316131D01*
X265825653Y-52095200D01*
X265825653Y-50063672D01*
X269267151Y-46622175D01*
X269329229Y-46571229D01*
X269380175Y-46509151D01*
X269380178Y-46509148D01*
X269532546Y-46323486D01*
X269632935Y-46135672D01*
X269683625Y-46040838D01*
X269776658Y-45734148D01*
X269800200Y-45495125D01*
X269800200Y-45495117D01*
X269808071Y-45415200D01*
X269800200Y-45335283D01*
X269800200Y-31575925D01*
X269808072Y-31496000D01*
X269776658Y-31177052D01*
X269760220Y-31122864D01*
X269683625Y-30870362D01*
X269532546Y-30587714D01*
X269466427Y-30507147D01*
X269380178Y-30402052D01*
X269380175Y-30402049D01*
X269329229Y-30339971D01*
X269267152Y-30289026D01*
X266535379Y-27557254D01*
X266484429Y-27495171D01*
X266236686Y-27291854D01*
X265954038Y-27140775D01*
X265647348Y-27047742D01*
X265551490Y-27038301D01*
X265542800Y-27022043D01*
X265401965Y-26850435D01*
X265230357Y-26709600D01*
X265228200Y-26708447D01*
X265228200Y-24819525D01*
X265236072Y-24739600D01*
X265204658Y-24420652D01*
X265142445Y-24215563D01*
X265111625Y-24113962D01*
X264960546Y-23831314D01*
X264757229Y-23583571D01*
X264695147Y-23532622D01*
X263131780Y-21969255D01*
X263080829Y-21907171D01*
X262833086Y-21703854D01*
X262550438Y-21552775D01*
X262243748Y-21459742D01*
X262004725Y-21436200D01*
X262004714Y-21436200D01*
X261924800Y-21428329D01*
X261844886Y-21436200D01*
X246409114Y-21436200D01*
X246329200Y-21428329D01*
X246249286Y-21436200D01*
X232061785Y-21436200D01*
X231842449Y-21216864D01*
X231453132Y-20956730D01*
X231020545Y-20777547D01*
X230561314Y-20686200D01*
X230093086Y-20686200D01*
X229633855Y-20777547D01*
X229201268Y-20956730D01*
X228811951Y-21216864D01*
X228480864Y-21547951D01*
X228220730Y-21937268D01*
X228041547Y-22369855D01*
X227950200Y-22829086D01*
X227950200Y-23297314D01*
X228041547Y-23756545D01*
X228205972Y-24153502D01*
X226880655Y-25478819D01*
X226874200Y-25413277D01*
X226874200Y-24797785D01*
X227093536Y-24578449D01*
X227353670Y-24189132D01*
X227532853Y-23756545D01*
X227624200Y-23297314D01*
X227624200Y-22829086D01*
X227532853Y-22369855D01*
X227353670Y-21937268D01*
X227093536Y-21547951D01*
X226762449Y-21216864D01*
X226373132Y-20956730D01*
X225940545Y-20777547D01*
X225481314Y-20686200D01*
X225013086Y-20686200D01*
X224553855Y-20777547D01*
X224121268Y-20956730D01*
X223731951Y-21216864D01*
X223400864Y-21547951D01*
X223140730Y-21937268D01*
X222961547Y-22369855D01*
X222870200Y-22829086D01*
X222870200Y-23297314D01*
X222961547Y-23756545D01*
X223140730Y-24189132D01*
X223400864Y-24578449D01*
X223620201Y-24797786D01*
X223620201Y-24819275D01*
X220680916Y-27758561D01*
X220528123Y-27389688D01*
X220295349Y-27041316D01*
X219999084Y-26745051D01*
X219650712Y-26512277D01*
X219263623Y-26351939D01*
X218852691Y-26270200D01*
X218433709Y-26270200D01*
X218022777Y-26351939D01*
X217635688Y-26512277D01*
X217546007Y-26572200D01*
X212503785Y-26572200D01*
X212284449Y-26352864D01*
X211895132Y-26092730D01*
X211462545Y-25913547D01*
X211003314Y-25822200D01*
X210535086Y-25822200D01*
X210075855Y-25913547D01*
X209643268Y-26092730D01*
X209253951Y-26352864D01*
X208922864Y-26683951D01*
X208662730Y-27073268D01*
X208483547Y-27505855D01*
X208392200Y-27965086D01*
X208392200Y-28433314D01*
X208483547Y-28892545D01*
X208662730Y-29325132D01*
X208922864Y-29714449D01*
X209253951Y-30045536D01*
X209643268Y-30305670D01*
X209665845Y-30315022D01*
X209635200Y-30385595D01*
X210769200Y-31519595D01*
X211903200Y-30385595D01*
X211872555Y-30315022D01*
X211895132Y-30305670D01*
X212284449Y-30045536D01*
X212503785Y-29826200D01*
X216036004Y-29826200D01*
X216022009Y-29843253D01*
X212723255Y-33142007D01*
X212661171Y-33192958D01*
X212457854Y-33440702D01*
X212306775Y-33723350D01*
X212213742Y-34030040D01*
X212190200Y-34269063D01*
X212190200Y-34269073D01*
X212182329Y-34348987D01*
X212190200Y-34428902D01*
X212190201Y-40124614D01*
X211970864Y-40343951D01*
X211710730Y-40733268D01*
X211531547Y-41165855D01*
X211440200Y-41625086D01*
X211440200Y-41935275D01*
X205916050Y-47459425D01*
X205853972Y-47510371D01*
X205803026Y-47572449D01*
X205803022Y-47572453D01*
X205650654Y-47758115D01*
X205499576Y-48040762D01*
X205406543Y-48347453D01*
X205375129Y-48666400D01*
X204571200Y-48666400D01*
X204571200Y-42278845D01*
X206899505Y-42278845D01*
X206976067Y-42531248D01*
X207141017Y-42861915D01*
X207367307Y-43154048D01*
X207646241Y-43396421D01*
X207967100Y-43579719D01*
X208317554Y-43696899D01*
X208610200Y-43581171D01*
X208610200Y-41986200D01*
X208864200Y-41986200D01*
X208864200Y-43581171D01*
X209156846Y-43696899D01*
X209507300Y-43579719D01*
X209828159Y-43396421D01*
X210107093Y-43154048D01*
X210333383Y-42861915D01*
X210498333Y-42531248D01*
X210574895Y-42278845D01*
X210458772Y-41986200D01*
X208864200Y-41986200D01*
X208610200Y-41986200D01*
X207015628Y-41986200D01*
X206899505Y-42278845D01*
X204571200Y-42278845D01*
X204571200Y-41439555D01*
X206899505Y-41439555D01*
X207015628Y-41732200D01*
X208610200Y-41732200D01*
X208610200Y-40137229D01*
X208864200Y-40137229D01*
X208864200Y-41732200D01*
X210458772Y-41732200D01*
X210574895Y-41439555D01*
X210498333Y-41187152D01*
X210333383Y-40856485D01*
X210107093Y-40564352D01*
X209828159Y-40321979D01*
X209507300Y-40138681D01*
X209156846Y-40021501D01*
X208864200Y-40137229D01*
X208610200Y-40137229D01*
X208317554Y-40021501D01*
X207967100Y-40138681D01*
X207646241Y-40321979D01*
X207367307Y-40564352D01*
X207141017Y-40856485D01*
X206976067Y-41187152D01*
X206899505Y-41439555D01*
X204571200Y-41439555D01*
X204571200Y-33012805D01*
X209635200Y-33012805D01*
X209761114Y-33302777D01*
X210093326Y-33468633D01*
X210451512Y-33566490D01*
X210821906Y-33592589D01*
X211190275Y-33545925D01*
X211542462Y-33428294D01*
X211777286Y-33302777D01*
X211903200Y-33012805D01*
X210769200Y-31878805D01*
X209635200Y-33012805D01*
X204571200Y-33012805D01*
X204571200Y-31751906D01*
X208875811Y-31751906D01*
X208922475Y-32120275D01*
X209040106Y-32472462D01*
X209165623Y-32707286D01*
X209455595Y-32833200D01*
X210589595Y-31699200D01*
X210948805Y-31699200D01*
X212082805Y-32833200D01*
X212372777Y-32707286D01*
X212538633Y-32375074D01*
X212636490Y-32016888D01*
X212662589Y-31646494D01*
X212615925Y-31278125D01*
X212498294Y-30925938D01*
X212372777Y-30691114D01*
X212082805Y-30565200D01*
X210948805Y-31699200D01*
X210589595Y-31699200D01*
X209455595Y-30565200D01*
X209165623Y-30691114D01*
X208999767Y-31023326D01*
X208901910Y-31381512D01*
X208875811Y-31751906D01*
X204571200Y-31751906D01*
X204571200Y-20167200D01*
X271170800Y-20167200D01*
X271170801Y-61062000D01*
G37*
%TD.AperFunction*%
%TD*%
M02*
