M48
; DRILL file {KiCad 5.1.7-a382d34a8~87~ubuntu18.04.1} date Thu Oct 29 22:52:18 2020
; FORMAT={-:-/ absolute / metric / decimal}
; #@! TF.CreationDate,2020-10-29T22:52:18+05:30
; #@! TF.GenerationSoftware,Kicad,Pcbnew,5.1.7-a382d34a8~87~ubuntu18.04.1
; #@! TF.FileFunction,Plated,1,2,PTH
FMAT,2
METRIC
T1C0.700
T2C0.750
T3C0.800
T4C1.000
T5C1.100
T6C1.600
%
G90
G05
T1
X230.327Y-23.063
X223.215Y-46.177
X208.737Y-41.859
X213.817Y-41.859
X235.407Y-44.653
X240.487Y-44.653
X254.711Y-27.889
X254.711Y-32.969
X254.457Y-36.779
X254.457Y-41.859
X225.247Y-23.063
X228.295Y-46.177
T2
X226.314Y-57.404
X227.584Y-53.594
X231.394Y-57.404
T3
X259.339Y-39.827
X262.839Y-39.827
X218.643Y-28.397
X218.643Y-30.937
X218.643Y-33.477
X218.643Y-36.017
X226.263Y-28.397
X226.263Y-30.937
X226.263Y-33.477
X226.263Y-36.017
X240.487Y-27.889
X240.487Y-30.429
X240.487Y-32.969
X240.487Y-35.509
X248.107Y-27.889
X248.107Y-30.429
X248.107Y-32.969
X248.107Y-35.509
X230.937Y-40.081
X234.437Y-40.081
X210.769Y-28.199
X210.769Y-31.699
X246.99Y-44.501
X250.49Y-44.501
T4
X263.601Y-28.651
X263.601Y-31.191
X237.439Y-54.305
X245.039Y-54.305
X233.883Y-29.413
T5
X210.261Y-51.837
X210.261Y-56.337
X216.761Y-51.837
X216.761Y-56.337
T6
X263.093Y-50.495
X263.093Y-58.115
T0
M30
