<?xml version="1.0" standalone="no"?>
 <!DOCTYPE svg PUBLIC "-//W3C//DTD SVG 1.1//EN" 
 "http://www.w3.org/Graphics/SVG/1.1/DTD/svg11.dtd"> 
<svg
  xmlns:svg="http://www.w3.org/2000/svg"
  xmlns="http://www.w3.org/2000/svg"
  xmlns:xlink="http://www.w3.org/1999/xlink"
  version="1.1"
  width="29.700220cm" height="21.000720cm" viewBox="0 0 116930 82680">
<title>SVG Picture created as indicator-F_Cu.svg date 2020/10/04 09:50:13 </title>
  <desc>Picture generated by PCBNEW </desc>
<g style="fill:#000000; fill-opacity:1;stroke:#000000; stroke-opacity:1;
stroke-linecap:round; stroke-linejoin:round;"
 transform="translate(0 0) scale(1 1)">
</g>
<g style="fill:#000000; fill-opacity:0.0; 
stroke:#000000; stroke-width:-0.000393701; stroke-opacity:1; 
stroke-linecap:round; stroke-linejoin:round;">
</g>
<g style="fill:#000000; fill-opacity:0.0; 
stroke:#000000; stroke-width:19.685; stroke-opacity:1; 
stroke-linecap:round; stroke-linejoin:round;">
<path d="M109530 7600
L109430 7600
" />
<path d="M109530 12200
L109530 7600
" />
<path d="M97430 12200
L109530 12200
" />
<path d="M97430 7600
L97430 12200
" />
<path d="M97630 7600
L97430 7600
" />
<path d="M109430 7600
L97630 7600
" />
<g >
</g>
<g style="fill:#000000; fill-opacity:0.0; 
stroke:#000000; stroke-width:0; stroke-opacity:1; 
stroke-linecap:round; stroke-linejoin:round;">
</g>
<g style="fill:#000000; fill-opacity:1.0; 
stroke:#000000; stroke-width:0; stroke-opacity:1; 
stroke-linecap:round; stroke-linejoin:round;">
<path style="fill:#000000; fill-opacity:1.0; 
stroke:#000000; stroke-width:0; stroke-opacity:1; 
stroke-linecap:round; stroke-linejoin:round;fill-rule:evenodd;"
d="M 105576,8345.67
105576,9054.33
106284,9054.33
106284,8345.67
Z" /> 
<circle cx="106930" cy="8700" r="354.331" /> 
</g>
<g style="fill:#000000; fill-opacity:1.0; 
stroke:#000000; stroke-width:39.3701; stroke-opacity:1; 
stroke-linecap:round; stroke-linejoin:round;">
</g>
<g >
</g>
<g style="fill:#000000; fill-opacity:1.0; 
stroke:#000000; stroke-width:39.3701; stroke-opacity:1; 
stroke-linecap:round; stroke-linejoin:round;">
</g>
<g style="fill:#000000; fill-opacity:1.0; 
stroke:#000000; stroke-width:0; stroke-opacity:1; 
stroke-linecap:round; stroke-linejoin:round;">
<circle cx="104330" cy="8700" r="354.331" /> 
</g>
<g style="fill:#000000; fill-opacity:1.0; 
stroke:#000000; stroke-width:39.3701; stroke-opacity:1; 
stroke-linecap:round; stroke-linejoin:round;">
</g>
<g style="fill:#000000; fill-opacity:1.0; 
stroke:#000000; stroke-width:0; stroke-opacity:1; 
stroke-linecap:round; stroke-linejoin:round;">
<path style="fill:#000000; fill-opacity:1.0; 
stroke:#000000; stroke-width:0; stroke-opacity:1; 
stroke-linecap:round; stroke-linejoin:round;fill-rule:evenodd;"
d="M 102976,8345.67
102976,9054.33
103684,9054.33
103684,8345.67
Z" /> 
</g>
<g >
</g>
<g style="fill:#000000; fill-opacity:1.0; 
stroke:#000000; stroke-width:0; stroke-opacity:1; 
stroke-linecap:round; stroke-linejoin:round;">
<path style="fill:#000000; fill-opacity:1.0; 
stroke:#000000; stroke-width:0; stroke-opacity:1; 
stroke-linecap:round; stroke-linejoin:round;fill-rule:evenodd;"
d="M 100376,8345.67
100376,9054.33
101084,9054.33
101084,8345.67
Z" /> 
<circle cx="101730" cy="8700" r="354.331" /> 
</g>
<g style="fill:#000000; fill-opacity:1.0; 
stroke:#000000; stroke-width:39.3701; stroke-opacity:1; 
stroke-linecap:round; stroke-linejoin:round;">
</g>
<g >
</g>
<g style="fill:#000000; fill-opacity:1.0; 
stroke:#000000; stroke-width:39.3701; stroke-opacity:1; 
stroke-linecap:round; stroke-linejoin:round;">
</g>
<g style="fill:#000000; fill-opacity:1.0; 
stroke:#000000; stroke-width:0; stroke-opacity:1; 
stroke-linecap:round; stroke-linejoin:round;">
<circle cx="99130" cy="8700" r="354.331" /> 
</g>
<g style="fill:#000000; fill-opacity:1.0; 
stroke:#000000; stroke-width:39.3701; stroke-opacity:1; 
stroke-linecap:round; stroke-linejoin:round;">
</g>
<g style="fill:#000000; fill-opacity:1.0; 
stroke:#000000; stroke-width:0; stroke-opacity:1; 
stroke-linecap:round; stroke-linejoin:round;">
<path style="fill:#000000; fill-opacity:1.0; 
stroke:#000000; stroke-width:0; stroke-opacity:1; 
stroke-linecap:round; stroke-linejoin:round;fill-rule:evenodd;"
d="M 97775.7,8345.67
97775.7,9054.33
98484.3,9054.33
98484.3,8345.67
Z" /> 
</g>
<g >
</g>
<g style="fill:#000000; fill-opacity:1.0; 
stroke:#000000; stroke-width:0; stroke-opacity:1; 
stroke-linecap:round; stroke-linejoin:round;">
<path style="fill:#000000; fill-opacity:1.0; 
stroke:#000000; stroke-width:0; stroke-opacity:1; 
stroke-linecap:round; stroke-linejoin:round;fill-rule:evenodd;"
d="M 108765,8784.65
108765,8115.35
108095,8115.35
108095,8784.65
Z" /> 
<circle cx="108430" cy="9450" r="334.646" /> 
<circle cx="108430" cy="10450" r="334.646" /> 
</g>
<g >
</g>
<g style="fill:#000000; fill-opacity:1.0; 
stroke:#000000; stroke-width:0; stroke-opacity:1; 
stroke-linecap:round; stroke-linejoin:round;">
<path style="fill:#000000; fill-opacity:1.0; 
stroke:#000000; stroke-width:0; stroke-opacity:1; 
stroke-linecap:round; stroke-linejoin:round;fill-rule:evenodd;"
d="M 102037,11295.3
102037,10704.7
101623,10704.7
101623,11295.3
Z" /> 
</g>
<g style="fill:#000000; fill-opacity:1.0; 
stroke:#000000; stroke-width:413.386; stroke-opacity:1; 
stroke-linecap:round; stroke-linejoin:round;">
</g>
<g style="fill:#000000; fill-opacity:0.0; 
stroke:#000000; stroke-width:413.386; stroke-opacity:1; 
stroke-linecap:round; stroke-linejoin:round;">
<path d="M100830 10911
L100830 11088
" />
<path d="M101330 10911
L101330 11088
" />
</g>
<g >
</g>
<g style="fill:#000000; fill-opacity:0.0; 
stroke:#000000; stroke-width:413.386; stroke-opacity:1; 
stroke-linecap:round; stroke-linejoin:round;">
<path d="M98730 10911
L98730 11088
" />
<path d="M98230 10911
L98230 11088
" />
</g>
<g style="fill:#000000; fill-opacity:0.0; 
stroke:#000000; stroke-width:0; stroke-opacity:1; 
stroke-linecap:round; stroke-linejoin:round;">
</g>
<g style="fill:#000000; fill-opacity:1.0; 
stroke:#000000; stroke-width:0; stroke-opacity:1; 
stroke-linecap:round; stroke-linejoin:round;">
<path style="fill:#000000; fill-opacity:1.0; 
stroke:#000000; stroke-width:0; stroke-opacity:1; 
stroke-linecap:round; stroke-linejoin:round;fill-rule:evenodd;"
d="M 99436.7,11295.3
99436.7,10704.7
99023.3,10704.7
99023.3,11295.3
Z" /> 
</g>
<g >
</g>
<g style="fill:#000000; fill-opacity:1.0; 
stroke:#000000; stroke-width:0; stroke-opacity:1; 
stroke-linecap:round; stroke-linejoin:round;">
<path style="fill:#000000; fill-opacity:1.0; 
stroke:#000000; stroke-width:0; stroke-opacity:1; 
stroke-linecap:round; stroke-linejoin:round;fill-rule:evenodd;"
d="M 106770,10424.9
106760,10426.3
106751,10428.6
106742,10431.9
106733,10436
106725,10441
106717,10446.8
106710,10453.2
106704,10460.4
106698,10468.2
106693,10476.4
106689,10485.2
106685,10494.3
106683,10503.6
106682,10513.2
106681,10522.8
106681,10877.2
106682,10886.8
106683,10896.4
106685,10905.7
106689,10914.8
106693,10923.6
106698,10931.8
106704,10939.6
106710,10946.8
106717,10953.2
106725,10959
106733,10964
106742,10968.1
106751,10971.4
106760,10973.7
106770,10975.1
106780,10975.6
107055,10975.6
107065,10975.1
107074,10973.7
107084,10971.4
107093,10968.1
107102,10964
107110,10959
107118,10953.2
107125,10946.8
107131,10939.6
107137,10931.8
107142,10923.6
107146,10914.8
107149,10905.7
107152,10896.4
107153,10886.8
107154,10877.2
107154,10522.8
107153,10513.2
107152,10503.6
107149,10494.3
107146,10485.2
107142,10476.4
107137,10468.2
107131,10460.4
107125,10453.2
107118,10446.8
107110,10441
107102,10436
107093,10431.9
107084,10428.6
107074,10426.3
107065,10424.9
107055,10424.4
106780,10424.4
Z" /> 
<path style="fill:#000000; fill-opacity:1.0; 
stroke:#000000; stroke-width:0; stroke-opacity:1; 
stroke-linecap:round; stroke-linejoin:round;fill-rule:evenodd;"
d="M 105983,10424.9
105973,10426.3
105964,10428.6
105955,10431.9
105946,10436
105938,10441
105930,10446.8
105923,10453.2
105916,10460.4
105910,10468.2
105905,10476.4
105901,10485.2
105898,10494.3
105896,10503.6
105894,10513.2
105894,10522.8
105894,10877.2
105894,10886.8
105896,10896.4
105898,10905.7
105901,10914.8
105905,10923.6
105910,10931.8
105916,10939.6
105923,10946.8
105930,10953.2
105938,10959
105946,10964
105955,10968.1
105964,10971.4
105973,10973.7
105983,10975.1
105992,10975.6
106268,10975.6
106277,10975.1
106287,10973.7
106296,10971.4
106305,10968.1
106314,10964
106322,10959
106330,10953.2
106337,10946.8
106344,10939.6
106350,10931.8
106355,10923.6
106359,10914.8
106362,10905.7
106364,10896.4
106366,10886.8
106366,10877.2
106366,10522.8
106366,10513.2
106364,10503.6
106362,10494.3
106359,10485.2
106355,10476.4
106350,10468.2
106344,10460.4
106337,10453.2
106330,10446.8
106322,10441
106314,10436
106305,10431.9
106296,10428.6
106287,10426.3
106277,10424.9
106268,10424.4
105992,10424.4
Z" /> 
</g>
<g >
</g>
<g style="fill:#000000; fill-opacity:1.0; 
stroke:#000000; stroke-width:0; stroke-opacity:1; 
stroke-linecap:round; stroke-linejoin:round;">
<path style="fill:#000000; fill-opacity:1.0; 
stroke:#000000; stroke-width:0; stroke-opacity:1; 
stroke-linecap:round; stroke-linejoin:round;fill-rule:evenodd;"
d="M 103443,11358
103434,11359.4
103424,11361.7
103415,11365
103406,11369.1
103398,11374.1
103390,11379.8
103383,11386.3
103377,11393.5
103371,11401.2
103366,11409.5
103362,11418.2
103359,11427.3
103356,11436.7
103355,11446.3
103354,11455.9
103354,11731.5
103355,11741.1
103356,11750.7
103359,11760.1
103362,11769.2
103366,11777.9
103371,11786.2
103377,11793.9
103383,11801.1
103390,11807.6
103398,11813.3
103406,11818.3
103415,11822.4
103424,11825.7
103434,11828
103443,11829.4
103453,11829.9
103807,11829.9
103817,11829.4
103826,11828
103836,11825.7
103845,11822.4
103854,11818.3
103862,11813.3
103870,11807.6
103877,11801.1
103883,11793.9
103889,11786.2
103894,11777.9
103898,11769.2
103901,11760.1
103904,11750.7
103905,11741.1
103906,11731.5
103906,11455.9
103905,11446.3
103904,11436.7
103901,11427.3
103898,11418.2
103894,11409.5
103889,11401.2
103883,11393.5
103877,11386.3
103870,11379.8
103862,11374.1
103854,11369.1
103845,11365
103836,11361.7
103826,11359.4
103817,11358
103807,11357.5
103453,11357.5
Z" /> 
<path style="fill:#000000; fill-opacity:1.0; 
stroke:#000000; stroke-width:0; stroke-opacity:1; 
stroke-linecap:round; stroke-linejoin:round;fill-rule:evenodd;"
d="M 103443,10570.6
103434,10572
103424,10574.3
103415,10577.6
103406,10581.7
103398,10586.7
103390,10592.4
103383,10598.9
103377,10606.1
103371,10613.8
103366,10622.1
103362,10630.8
103359,10639.9
103356,10649.3
103355,10658.9
103354,10668.5
103354,10944.1
103355,10953.7
103356,10963.3
103359,10972.7
103362,10981.8
103366,10990.5
103371,10998.8
103377,11006.5
103383,11013.7
103390,11020.2
103398,11025.9
103406,11030.9
103415,11035
103424,11038.3
103434,11040.6
103443,11042
103453,11042.5
103807,11042.5
103817,11042
103826,11040.6
103836,11038.3
103845,11035
103854,11030.9
103862,11025.9
103870,11020.2
103877,11013.7
103883,11006.5
103889,10998.8
103894,10990.5
103898,10981.8
103901,10972.7
103904,10963.3
103905,10953.7
103906,10944.1
103906,10668.5
103905,10658.9
103904,10649.3
103901,10639.9
103898,10630.8
103894,10622.1
103889,10613.8
103883,10606.1
103877,10598.9
103870,10592.4
103862,10586.7
103854,10581.7
103845,10577.6
103836,10574.3
103826,10572
103817,10570.6
103807,10570.1
103453,10570.1
Z" /> 
</g>
<g >
</g>
<g >
</g>
<g style="fill:#000000; fill-opacity:1.0; 
stroke:#000000; stroke-width:0; stroke-opacity:1; 
stroke-linecap:round; stroke-linejoin:round;">
</g>
<g style="fill:#000000; fill-opacity:1.0; 
stroke:#000000; stroke-width:98.4252; stroke-opacity:1; 
stroke-linecap:round; stroke-linejoin:round;">
</g>
<g style="fill:#000000; fill-opacity:0.0; 
stroke:#000000; stroke-width:98.4252; stroke-opacity:1; 
stroke-linecap:round; stroke-linejoin:round;">
<path d="M107180 8450
L106930 8700
" />
<path d="M108430 8450
L107180 8450
" />
<path d="M107167 10450
L106917 10700
" />
<path d="M108430 10450
L107167 10450
" />
<path d="M100830 11000
L100630 11000
" />
<path d="M100630 11000
L99830 10200
" />
<path d="M98730 10606
L98730 11000
" />
<path d="M99136 10200
L98730 10606
" />
<path d="M99830 10200
L99136 10200
" />
<path d="M106130 10700
L105130 10700
" />
<path d="M105130 10700
L104330 9900
" />
<path d="M104330 9900
L101230 9900
" />
<path d="M100830 10300
L100830 11000
" />
<path d="M101230 9900
L100830 10300
" />
<path d="M103630 11593
L101523 11593
" />
<path d="M101523 11593
L101330 11400
" />
<path d="M99230 11000
L99730 11000
" />
<path d="M99730 11000
L100430 11700
" />
<path d="M100930 11700
L101330 11300
" />
<path d="M100430 11700
L100930 11700
" />
<path d="M101330 11400
L101330 11300
" />
<path d="M101330 11300
L101330 11000
" />
<path d="M105930 8700
L104330 8700
" />
<path d="M103330 8700
L101730 8700
" />
<path d="M100730 8700
L99130 8700
" />
<path d="M98130 10900
L98230 11000
" />
<path d="M98230 10400
L98230 11000
" />
<path d="M98130 8700
L98130 10300
" />
<path d="M98130 10300
L98230 10400
" />
</g>
<g >
</g>
<g style="fill:#000000; fill-opacity:0.0; 
stroke:#000000; stroke-width:98.4252; stroke-opacity:1; 
stroke-linecap:round; stroke-linejoin:round;">
<g >
</g>
<g style="fill:#000000; fill-opacity:1.0; 
stroke:#000000; stroke-width:100; stroke-opacity:1; 
stroke-linecap:round; stroke-linejoin:round;">
<path style="fill:#000000; fill-opacity:1.0; 
stroke:#000000; stroke-width:100; stroke-opacity:1; 
stroke-linecap:round; stroke-linejoin:round;fill-rule:evenodd;"
d="M 97689.8,8110.46
97726.7,8099.29
97775.7,8094.46
98484.3,8094.46
98533.3,8099.29
98580.5,8113.58
98623.9,8136.8
98662,8168.04
98693.2,8206.1
98716.4,8249.54
98718.6,8256.74
98744.8,8230.59
98843.7,8164.45
98953.7,8118.89
99070.5,8095.67
99189.5,8095.67
99306.3,8118.89
99416.3,8164.45
99515.2,8230.59
99599.4,8314.76
99656.9,8400.79
100124,8400.79
100124,8345.67
100129,8296.66
100144,8249.54
100167,8206.1
100198,8168.04
100236,8136.8
100280,8113.58
100327,8099.29
100376,8094.46
101084,8094.46
101133,8099.29
101180,8113.58
101224,8136.8
101262,8168.04
101293,8206.1
101316,8249.54
101319,8256.74
101345,8230.59
101444,8164.45
101554,8118.89
101670,8095.67
101790,8095.67
101906,8118.89
102016,8164.45
102115,8230.59
102199,8314.76
102257,8400.79
102724,8400.79
102724,8345.67
102729,8296.66
102744,8249.54
102767,8206.1
102798,8168.04
102836,8136.8
102880,8113.58
102927,8099.29
102976,8094.46
103684,8094.46
103733,8099.29
103780,8113.58
103824,8136.8
103862,8168.04
103893,8206.1
103916,8249.54
103919,8256.74
103945,8230.59
104044,8164.45
104154,8118.89
104270,8095.67
104390,8095.67
104506,8118.89
104616,8164.45
104715,8230.59
104799,8314.76
104857,8400.79
105324,8400.79
105324,8345.67
105329,8296.66
105344,8249.54
105367,8206.1
105398,8168.04
105436,8136.8
105480,8113.58
105527,8099.29
105576,8094.46
106284,8094.46
106333,8099.29
106380,8113.58
106424,8136.8
106462,8168.04
106493,8206.1
106516,8249.54
106519,8256.74
106545,8230.59
106644,8164.45
106754,8118.89
106870,8095.67
106990,8095.67
107106,8118.89
107180,8149.36
107180,8149.34
107195,8150.79
107844,8150.79
107844,8115.35
107849,8066.35
107863,8019.22
107886,7975.79
107918,7937.72
107956,7906.48
107999,7883.27
108046,7868.97
108095,7864.14
108765,7864.14
108814,7868.97
108861,7883.27
108904,7906.48
108942,7937.72
108974,7975.79
108997,8019.22
109011,8066.35
109016,8115.35
109016,8784.65
109011,8833.65
108997,8880.78
108974,8924.21
108942,8962.28
108904,8993.52
108861,9016.73
108829,9026.36
108862,9056.19
108931,9148.06
108980,9251.54
108998,9309.49
108950,9400
108480,9400
108480,9392.13
108380,9392.13
108380,9400
107910,9400
107862,9309.49
107880,9251.54
107929,9148.06
107998,9056.19
108031,9026.36
107999,9016.73
107956,8993.52
107918,8962.28
107886,8924.21
107863,8880.78
107849,8833.65
107844,8784.65
107844,8749.21
107534,8749.21
107534,8759.52
107511,8876.28
107466,8986.26
107399,9085.24
107315,9169.41
107216,9235.55
107106,9281.11
106990,9304.33
106870,9304.33
106754,9281.11
106644,9235.55
106545,9169.41
106519,9143.26
106516,9150.46
106493,9193.9
106462,9231.96
106424,9263.2
106380,9286.42
106333,9300.71
106284,9305.54
105576,9305.54
105527,9300.71
105480,9286.42
105436,9263.2
105398,9231.96
105367,9193.9
105344,9150.46
105329,9103.34
105324,9054.33
105324,8999.21
104857,8999.21
104799,9085.24
104715,9169.41
104616,9235.55
104506,9281.11
104390,9304.33
104270,9304.33
104154,9281.11
104044,9235.55
103945,9169.41
103919,9143.26
103916,9150.46
103893,9193.9
103862,9231.96
103824,9263.2
103780,9286.42
103733,9300.71
103684,9305.54
102976,9305.54
102927,9300.71
102880,9286.42
102836,9263.2
102798,9231.96
102767,9193.9
102744,9150.46
102729,9103.34
102724,9054.33
102724,8999.21
102257,8999.21
102199,9085.24
102115,9169.41
102016,9235.55
101906,9281.11
101790,9304.33
101670,9304.33
101554,9281.11
101444,9235.55
101345,9169.41
101319,9143.26
101316,9150.46
101293,9193.9
101262,9231.96
101224,9263.2
101180,9286.42
101133,9300.71
101084,9305.54
100376,9305.54
100327,9300.71
100280,9286.42
100236,9263.2
100198,9231.96
100167,9193.9
100144,9150.46
100129,9103.34
100124,9054.33
100124,8999.21
99656.9,8999.21
99599.4,9085.24
99515.2,9169.41
99416.3,9235.55
99306.3,9281.11
99189.5,9304.33
99070.5,9304.33
98953.7,9281.11
98843.7,9235.55
98744.8,9169.41
98718.6,9143.26
98716.4,9150.46
98693.2,9193.9
98662,9231.96
98623.9,9263.2
98580.5,9286.42
98533.3,9300.71
98484.3,9305.54
98429.2,9305.54
98429.2,10176.1
98431.2,10178
98442.6,10187.4
98464.3,10213.8
98480,10233
98502.8,10275.6
98507.8,10284.9
98524.9,10341.3
98529.1,10384.1
98914.3,9998.82
98923.7,9987.4
98969.3,9950.01
99021.2,9922.23
99077.6,9905.12
99121.6,9900.79
99121.6,9900.79
99136.3,9899.34
99151,9900.79
99815.3,9900.79
99830,9899.34
99844.7,9900.79
99844.7,9900.79
99888.7,9905.12
99945.1,9922.23
99997,9950.01
100030,9977.03
100043,9987.4
100052,9998.82
100531,10477.6
100531,10314.7
100529,10300
100531,10285.3
100531,10285.3
100535,10241.3
100552,10184.9
100571,10149.3
100580,10133
100608,10098.8
100617,10087.4
100629,10078
101008,9698.82
101017,9687.4
101063,9650.01
101115,9622.23
101171,9605.12
101215,9600.79
101215,9600.79
101230,9599.34
101245,9600.79
104315,9600.79
104330,9599.34
104345,9600.79
104345,9600.79
104389,9605.12
104445,9622.23
104497,9650.01
104530,9677.03
104543,9687.4
104552,9698.82
105254,10400.8
105666,10400.8
105669,10389
105701,10328.6
105745,10275.6
105798,10232.1
105858,10199.8
105924,10179.9
105992,10173.2
106268,10173.2
106336,10179.9
106402,10199.8
106462,10232.1
106515,10275.6
106524,10286.2
106532,10275.6
106585,10232.1
106646,10199.8
106711,10179.9
106780,10173.2
107051,10173.2
107052,10172.2
107109,10155.1
107153,10150.8
107153,10150.8
107167,10149.3
107182,10150.8
107927,10150.8
107976,10077.3
108057,9995.88
108129,9947.95
108083,9920.54
107998,9843.81
107929,9751.94
107880,9648.46
107862,9590.51
107910,9500
108380,9500
108380,9507.87
108480,9507.87
108480,9500
108950,9500
108998,9590.51
108980,9648.46
108931,9751.94
108862,9843.81
108777,9920.54
108731,9947.95
108803,9995.88
108884,10077.3
108948,10173.1
108992,10279.5
109015,10392.4
109015,10507.6
108992,10620.5
108948,10726.9
108884,10822.7
108803,10904.1
108707,10968.1
108601,11012.2
108488,11034.6
108372,11034.6
108259,11012.2
108153,10968.1
108057,10904.1
107976,10822.7
107927,10749.2
107405,10749.2
107405,10877.2
107398,10945.4
107378,11011
107346,11071.4
107302,11124.4
107249,11167.9
107189,11200.2
107123,11220.1
107055,11226.8
106780,11226.8
106711,11220.1
106646,11200.2
106585,11167.9
106532,11124.4
106524,11113.8
106515,11124.4
106462,11167.9
106402,11200.2
106336,11220.1
106268,11226.8
105992,11226.8
105924,11220.1
105858,11200.2
105798,11167.9
105745,11124.4
105701,11071.4
105669,11011
105666,10999.2
105145,10999.2
105130,11000.7
105115,10999.2
105115,10999.2
105071,10994.9
105015,10977.8
104963,10950
104917,10912.6
104908,10901.2
104577,10570.1
104157,10570.1
104156,10693.8
104093,10756.3
103680,10756.3
103680,10382.6
103580,10382.6
103580,10756.3
103167,10756.3
103115,10704.7
102288,10704.7
102287,10887.5
102224,10950
101880,10950
101880,10517.2
101942,10454.7
102037,10453.5
102086,10458.3
102133,10472.6
102176,10495.9
102214,10527.1
102246,10565.2
102269,10608.6
102283,10655.7
102288,10704.7
103115,10704.7
103104,10693.8
103103,10570.1
103108,10521.1
103122,10473.9
103146,10430.5
103177,10392.4
103215,10361.2
103258,10338
103305,10323.7
103354,10318.9
103518,10320.1
103580,10382.6
103680,10382.6
103742,10320.1
103906,10318.9
103955,10323.7
104002,10338
104045,10361.2
104083,10392.4
104114,10430.5
104138,10473.9
104152,10521.1
104157,10570.1
104577,10570.1
104206,10199.2
101354,10199.2
101129,10423.9
101129,10500.9
101154,10487.4
101240,10461.3
101330,10452.5
101420,10461.3
101502,10486.3
101527,10472.6
101574,10458.3
101623,10453.5
101718,10454.7
101780,10517.2
101780,10821.6
101780,10821.9
101787,10889
101787,11057.9
101880,11057.9
101880,11050
102224,11050
102287,11112.5
102288,11294.5
103145,11294.5
103162,11261.7
103188,11229.7
103177,11220.2
103146,11182.1
103122,11138.7
103108,11091.5
103103,11042.5
103104,10918.8
103167,10856.3
103580,10856.3
103580,10864.2
103680,10864.2
103680,10856.3
104093,10856.3
104156,10918.8
104157,11042.5
104152,11091.5
104138,11138.7
104114,11182.1
104083,11220.2
104072,11229.7
104098,11261.7
104130,11322.1
104150,11387.7
104157,11455.9
104157,11731.5
104150,11799.7
104130,11865.3
104098,11925.7
104086,11940.2
109270,11940.2
109270,7859.84
97689.8,7859.84
Z" /> 
</g>
</g>
</g> 
</svg>
